<mxfile host="domain-lowcode.wakedt.cn" modified="2023-01-01T08:32:54.890Z" agent="5.0 (Macintosh; Intel Mac OS X 10_15_7) AppleWebKit/537.36 (KHTML, like Gecko) Chrome/108.0.0.0 Safari/537.36" etag="9XJ-_w5lYIbZwR7zwNpZ" version="20.2.3" type="WAKEDATA" pages="3">
  <diagram id="ycGnjYmzJwle-k11gkEK" name="领域模型">
    <mxGraphModel dx="3312" dy="1299" grid="1" gridSize="10" guides="1" tooltips="1" connect="1" arrows="1" fold="1" page="0" pageScale="1" pageWidth="827" pageHeight="1169" background="none" math="0" shadow="0">
      <root>
        <mxCell id="0" />
        <mxCell id="1" parent="0" />
        <object label="%nodeDesc%" placeholders="1" nodeDesc="创建组织" shapeType="NODE" id="sc1KZ-z2Gv8KgIhitQs5-1">
          <mxCell style="rounded=0;whiteSpace=wrap;html=1;shadow=0;glass=0;sketch=0;fillStyle=auto;strokeWidth=1;metaEdit=1;resizable=1;rotatable=0;snapToPoint=0;connectable=1;absoluteArcSize=0;noLabel=0;labelPadding=0;allowArrows=1;recursiveResize=1;expand=1;editable=1;movable=1;deletable=1;fixDash=0;collapsible=0;portConstraintRotation=0;points=[[0,0.5,0,0,0],[1,0.5,0,0,0]];backgroundOutline=0;resizeHeight=1;resizeWidth=1;" parent="1" vertex="1">
            <mxGeometry x="-1113" y="-50" width="135" height="40" as="geometry" />
          </mxCell>
        </object>
        <object label="《%shapeType%》&#xa;%className%&#xa;%classDesc%" placeholders="1" shapeType="COMMAND" classPackage="create" classDesc="创建组织" className="OrganizationCreate" cmdType="ADD" id="sc1KZ-z2Gv8KgIhitQs5-2">
          <mxCell style="swimlane;fontStyle=1;align=center;verticalAlign=top;childLayout=stackLayout;horizontal=1;startSize=60;horizontalStack=0;resizeParent=1;resizeParentMax=0;resizeLast=0;collapsible=1;marginBottom=0;fixDash=1;container=1;enumerate=0;treeMoving=1;swimlaneBody=1;fillOpacity=100;strokeOpacity=100;overflow=visible;rounded=0;swimlaneLine=1;sketch=0;shadow=0;arcSize=9;strokeWidth=1;fillStyle=auto;swimlaneFillColor=default;metaEdit=1;labelPadding=0;cloneable=1;separatorColor=none;swimlaneHead=1;noLabel=0;direction=east;portConstraint=none;portConstraintRotation=0;rotation=0;connectable=0;snapToPoint=0;perimeter=rectanglePerimeter;dropTarget=1;expand=1;part=1;backgroundOutline=1;movableLabel=1;autosize=1;fixedWidth=1;resizable=1;resizeWidth=0;resizeHeight=0;rotatable=1;treeFolding=0;pointerEvents=1;moveCells=0;comic=0;enumerateValue=123;allowArrows=0;fontFamily=Helvetica;fontSize=13;fillColor=#d5e8d4;strokeColor=#82b366;" parent="1" vertex="1">
            <mxGeometry x="-1220" y="40" width="350" height="218" as="geometry">
              <mxRectangle x="-950" y="80" width="350" height="70" as="alternateBounds" />
            </mxGeometry>
          </mxCell>
        </object>
        <object label="%fieldModify% %fieldName%: %fieldType%    #%fieldDesc%" placeholders="1" shapeType="FIELD" fieldName="name" fieldType="String" fieldModify="-" fieldDesc="组织名称" id="sc1KZ-z2Gv8KgIhitQs5-3">
          <mxCell style="text;strokeColor=none;fillColor=none;align=left;verticalAlign=top;spacingLeft=4;spacingRight=4;overflow=hidden;rotatable=0;points=[];portConstraint=none;metaEdit=1;cloneable=1;rotation=0;connectable=1;container=0;dropTarget=1;imageAspect=1;absoluteArcSize=0;portConstraintRotation=0;snapToPoint=0;fixDash=0;pointerEvents=0;enumerate=0;resizeHeight=1;resizeWidth=1;autosize=1;part=1;movable=1;rounded=0;fontFamily=Helvetica;fontSize=13;fontColor=default;comic=1;" parent="sc1KZ-z2Gv8KgIhitQs5-2" vertex="1">
            <mxGeometry y="60" width="350" height="24" as="geometry" />
          </mxCell>
        </object>
        <object label="%fieldModify% %fieldName%: %fieldType%    #%fieldDesc%" placeholders="1" shapeType="FIELD" fieldName="description" fieldType="String" fieldModify="-" fieldDesc="描述信息" id="sc1KZ-z2Gv8KgIhitQs5-7">
          <mxCell style="text;strokeColor=none;fillColor=none;align=left;verticalAlign=top;spacingLeft=4;spacingRight=4;overflow=hidden;rotatable=0;points=[];portConstraint=none;metaEdit=1;cloneable=1;rotation=0;connectable=1;container=0;dropTarget=1;imageAspect=1;absoluteArcSize=0;portConstraintRotation=0;snapToPoint=0;fixDash=0;pointerEvents=0;enumerate=0;resizeHeight=1;resizeWidth=1;autosize=1;part=1;movable=1;rounded=0;fontFamily=Helvetica;fontSize=13;fontColor=default;comic=1;" parent="sc1KZ-z2Gv8KgIhitQs5-2" vertex="1">
            <mxGeometry y="84" width="350" height="24" as="geometry" />
          </mxCell>
        </object>
        <object label="《%shapeType%》" placeholders="1" shapeType="RULE_LIST" id="sc1KZ-z2Gv8KgIhitQs5-4">
          <mxCell style="swimlane;fontStyle=1;align=center;verticalAlign=top;childLayout=stackLayout;horizontal=1;startSize=28;horizontalStack=0;resizeParent=1;resizeParentMax=0;resizeLast=0;collapsible=1;marginBottom=0;fixDash=1;container=1;enumerate=0;treeMoving=1;swimlaneBody=1;fillOpacity=100;strokeOpacity=100;overflow=visible;rounded=0;swimlaneLine=1;sketch=0;shadow=0;arcSize=19;strokeWidth=1;fillStyle=auto;swimlaneFillColor=none;metaEdit=1;labelPadding=0;cloneable=1;separatorColor=none;swimlaneHead=1;noLabel=0;direction=east;portConstraint=none;portConstraintRotation=0;rotation=0;connectable=0;snapToPoint=0;perimeter=rectanglePerimeter;dropTarget=1;expand=1;part=1;backgroundOutline=1;movableLabel=1;autosize=1;fixedWidth=0;resizable=1;resizeWidth=0;resizeHeight=0;rotatable=1;treeFolding=0;pointerEvents=1;moveCells=0;comic=0;enumerateValue=123;allowArrows=0;fontFamily=Helvetica;fontSize=13;glass=0;editable=1;movable=1;deletable=1;fillColor=none;strokeColor=#b85450;gradientColor=none;" parent="sc1KZ-z2Gv8KgIhitQs5-2" vertex="1">
            <mxGeometry y="108" width="350" height="58" as="geometry">
              <mxRectangle y="256" width="420" height="50" as="alternateBounds" />
            </mxGeometry>
          </mxCell>
        </object>
        <object label="rule: %ruleDesc%" placeholders="1" shapeType="RULE_ITEM" ruleDesc="组织名称唯一" id="sc1KZ-z2Gv8KgIhitQs5-5">
          <mxCell style="text;strokeColor=none;fillColor=none;align=left;verticalAlign=top;spacingLeft=4;spacingRight=4;overflow=hidden;rotatable=0;points=[];portConstraint=none;metaEdit=1;cloneable=1;rotation=0;connectable=1;container=0;dropTarget=1;imageAspect=1;absoluteArcSize=0;portConstraintRotation=0;snapToPoint=0;fixDash=0;pointerEvents=0;enumerate=0;resizeHeight=1;resizeWidth=1;autosize=1;part=1;movable=1;rounded=0;fontFamily=Helvetica;fontSize=13;fontColor=default;" parent="sc1KZ-z2Gv8KgIhitQs5-4" vertex="1">
            <mxGeometry y="28" width="350" height="30" as="geometry" />
          </mxCell>
        </object>
        <object label="《%shapeType%》" placeholders="1" shapeType="EVENT" id="sc1KZ-z2Gv8KgIhitQs5-6">
          <mxCell style="swimlane;fontStyle=1;align=center;verticalAlign=top;childLayout=stackLayout;horizontal=1;startSize=28;horizontalStack=0;resizeParent=1;resizeParentMax=0;resizeLast=0;collapsible=1;marginBottom=0;fixDash=1;container=1;enumerate=0;treeMoving=1;swimlaneBody=1;fillOpacity=100;strokeOpacity=100;overflow=visible;rounded=0;swimlaneLine=1;sketch=0;shadow=0;arcSize=19;strokeWidth=1;fillStyle=auto;swimlaneFillColor=none;metaEdit=1;labelPadding=0;cloneable=1;separatorColor=none;swimlaneHead=1;noLabel=0;direction=east;portConstraint=none;portConstraintRotation=0;rotation=0;connectable=0;snapToPoint=0;perimeter=rectanglePerimeter;dropTarget=1;expand=1;part=1;backgroundOutline=1;movableLabel=1;autosize=1;fixedWidth=0;resizable=1;resizeWidth=0;resizeHeight=0;rotatable=1;treeFolding=0;pointerEvents=1;moveCells=0;comic=0;enumerateValue=123;allowArrows=0;fontFamily=Helvetica;fontSize=13;glass=0;editable=1;movable=1;deletable=1;fillColor=none;strokeColor=#6c8ebf;gradientColor=#7ea6e0;" parent="sc1KZ-z2Gv8KgIhitQs5-2" vertex="1">
            <mxGeometry y="166" width="350" height="52" as="geometry">
              <mxRectangle y="204" width="420" height="50" as="alternateBounds" />
            </mxGeometry>
          </mxCell>
        </object>
        <object label="%nodeDesc%" placeholders="1" nodeDesc="更新组织信息" shapeType="NODE" id="sc1KZ-z2Gv8KgIhitQs5-9">
          <mxCell style="rounded=0;whiteSpace=wrap;html=1;shadow=0;glass=0;sketch=0;fillStyle=auto;strokeWidth=1;metaEdit=1;resizable=1;rotatable=0;snapToPoint=0;connectable=1;absoluteArcSize=0;noLabel=0;labelPadding=0;allowArrows=1;recursiveResize=1;expand=1;editable=1;movable=1;deletable=1;fixDash=0;collapsible=0;portConstraintRotation=0;points=[[0,0.5,0,0,0],[1,0.5,0,0,0]];backgroundOutline=0;resizeHeight=1;resizeWidth=1;" parent="1" vertex="1">
            <mxGeometry x="-733" y="-50" width="135" height="40" as="geometry" />
          </mxCell>
        </object>
        <object label="《%shapeType%》&#xa;%className%&#xa;%classDesc%" placeholders="1" shapeType="COMMAND" classPackage="update" classDesc="更新组织信息" className="OrganizationUpdate" cmdType="UPDATE" id="sc1KZ-z2Gv8KgIhitQs5-10">
          <mxCell style="swimlane;fontStyle=1;align=center;verticalAlign=top;childLayout=stackLayout;horizontal=1;startSize=60;horizontalStack=0;resizeParent=1;resizeParentMax=0;resizeLast=0;collapsible=1;marginBottom=0;fixDash=1;container=1;enumerate=0;treeMoving=1;swimlaneBody=1;fillOpacity=100;strokeOpacity=100;overflow=visible;rounded=0;swimlaneLine=1;sketch=0;shadow=0;arcSize=9;strokeWidth=1;fillStyle=auto;swimlaneFillColor=default;metaEdit=1;labelPadding=0;cloneable=1;separatorColor=none;swimlaneHead=1;noLabel=0;direction=east;portConstraint=none;portConstraintRotation=0;rotation=0;connectable=0;snapToPoint=0;perimeter=rectanglePerimeter;dropTarget=1;expand=1;part=1;backgroundOutline=1;movableLabel=1;autosize=1;fixedWidth=1;resizable=1;resizeWidth=0;resizeHeight=0;rotatable=1;treeFolding=0;pointerEvents=1;moveCells=0;comic=0;enumerateValue=123;allowArrows=0;fontFamily=Helvetica;fontSize=13;fillColor=#d5e8d4;strokeColor=#82b366;" parent="1" vertex="1">
            <mxGeometry x="-840.5" y="40" width="350" height="242" as="geometry">
              <mxRectangle x="-950" y="80" width="350" height="70" as="alternateBounds" />
            </mxGeometry>
          </mxCell>
        </object>
        <object label="%fieldModify% %fieldName%: %fieldType%    #%fieldDesc%" placeholders="1" shapeType="FIELD" fieldName="id" fieldType="Long" fieldModify="-" fieldDesc="主键" id="sc1KZ-z2Gv8KgIhitQs5-11">
          <mxCell style="text;strokeColor=none;fillColor=none;align=left;verticalAlign=top;spacingLeft=4;spacingRight=4;overflow=hidden;rotatable=0;points=[];portConstraint=none;metaEdit=1;cloneable=1;rotation=0;connectable=1;container=0;dropTarget=1;imageAspect=1;absoluteArcSize=0;portConstraintRotation=0;snapToPoint=0;fixDash=0;pointerEvents=0;enumerate=0;resizeHeight=1;resizeWidth=1;autosize=1;part=1;movable=1;rounded=0;fontFamily=Helvetica;fontSize=13;fontColor=default;comic=1;" parent="sc1KZ-z2Gv8KgIhitQs5-10" vertex="1">
            <mxGeometry y="60" width="350" height="24" as="geometry" />
          </mxCell>
        </object>
        <object label="%fieldModify% %fieldName%: %fieldType%    #%fieldDesc%" placeholders="1" shapeType="FIELD" fieldName="name" fieldType="String" fieldModify="-" fieldDesc="组织名称" id="sc1KZ-z2Gv8KgIhitQs5-17">
          <mxCell style="text;strokeColor=none;fillColor=none;align=left;verticalAlign=top;spacingLeft=4;spacingRight=4;overflow=hidden;rotatable=0;points=[];portConstraint=none;metaEdit=1;cloneable=1;rotation=0;connectable=1;container=0;dropTarget=1;imageAspect=1;absoluteArcSize=0;portConstraintRotation=0;snapToPoint=0;fixDash=0;pointerEvents=0;enumerate=0;resizeHeight=1;resizeWidth=1;autosize=1;part=1;movable=1;rounded=0;fontFamily=Helvetica;fontSize=13;fontColor=default;comic=1;" parent="sc1KZ-z2Gv8KgIhitQs5-10" vertex="1">
            <mxGeometry y="84" width="350" height="24" as="geometry" />
          </mxCell>
        </object>
        <object label="%fieldModify% %fieldName%: %fieldType%    #%fieldDesc%" placeholders="1" shapeType="FIELD" fieldName="description" fieldType="String" fieldModify="-" fieldDesc="描述信息" id="sc1KZ-z2Gv8KgIhitQs5-12">
          <mxCell style="text;strokeColor=none;fillColor=none;align=left;verticalAlign=top;spacingLeft=4;spacingRight=4;overflow=hidden;rotatable=0;points=[];portConstraint=none;metaEdit=1;cloneable=1;rotation=0;connectable=1;container=0;dropTarget=1;imageAspect=1;absoluteArcSize=0;portConstraintRotation=0;snapToPoint=0;fixDash=0;pointerEvents=0;enumerate=0;resizeHeight=1;resizeWidth=1;autosize=1;part=1;movable=1;rounded=0;fontFamily=Helvetica;fontSize=13;fontColor=default;comic=1;" parent="sc1KZ-z2Gv8KgIhitQs5-10" vertex="1">
            <mxGeometry y="108" width="350" height="24" as="geometry" />
          </mxCell>
        </object>
        <object label="《%shapeType%》" placeholders="1" shapeType="RULE_LIST" id="sc1KZ-z2Gv8KgIhitQs5-14">
          <mxCell style="swimlane;fontStyle=1;align=center;verticalAlign=top;childLayout=stackLayout;horizontal=1;startSize=28;horizontalStack=0;resizeParent=1;resizeParentMax=0;resizeLast=0;collapsible=1;marginBottom=0;fixDash=1;container=1;enumerate=0;treeMoving=1;swimlaneBody=1;fillOpacity=100;strokeOpacity=100;overflow=visible;rounded=0;swimlaneLine=1;sketch=0;shadow=0;arcSize=19;strokeWidth=1;fillStyle=auto;swimlaneFillColor=none;metaEdit=1;labelPadding=0;cloneable=1;separatorColor=none;swimlaneHead=1;noLabel=0;direction=east;portConstraint=none;portConstraintRotation=0;rotation=0;connectable=0;snapToPoint=0;perimeter=rectanglePerimeter;dropTarget=1;expand=1;part=1;backgroundOutline=1;movableLabel=1;autosize=1;fixedWidth=0;resizable=1;resizeWidth=0;resizeHeight=0;rotatable=1;treeFolding=0;pointerEvents=1;moveCells=0;comic=0;enumerateValue=123;allowArrows=0;fontFamily=Helvetica;fontSize=13;glass=0;editable=1;movable=1;deletable=1;fillColor=none;strokeColor=#b85450;gradientColor=none;" parent="sc1KZ-z2Gv8KgIhitQs5-10" vertex="1">
            <mxGeometry y="132" width="350" height="58" as="geometry">
              <mxRectangle y="256" width="420" height="50" as="alternateBounds" />
            </mxGeometry>
          </mxCell>
        </object>
        <object label="rule: %ruleDesc%" placeholders="1" shapeType="RULE_ITEM" ruleDesc="组织名称唯一" id="sc1KZ-z2Gv8KgIhitQs5-15">
          <mxCell style="text;strokeColor=none;fillColor=none;align=left;verticalAlign=top;spacingLeft=4;spacingRight=4;overflow=hidden;rotatable=0;points=[];portConstraint=none;metaEdit=1;cloneable=1;rotation=0;connectable=1;container=0;dropTarget=1;imageAspect=1;absoluteArcSize=0;portConstraintRotation=0;snapToPoint=0;fixDash=0;pointerEvents=0;enumerate=0;resizeHeight=1;resizeWidth=1;autosize=1;part=1;movable=1;rounded=0;fontFamily=Helvetica;fontSize=13;fontColor=default;" parent="sc1KZ-z2Gv8KgIhitQs5-14" vertex="1">
            <mxGeometry y="28" width="350" height="30" as="geometry" />
          </mxCell>
        </object>
        <object label="《%shapeType%》" placeholders="1" shapeType="EVENT" id="sc1KZ-z2Gv8KgIhitQs5-16">
          <mxCell style="swimlane;fontStyle=1;align=center;verticalAlign=top;childLayout=stackLayout;horizontal=1;startSize=28;horizontalStack=0;resizeParent=1;resizeParentMax=0;resizeLast=0;collapsible=1;marginBottom=0;fixDash=1;container=1;enumerate=0;treeMoving=1;swimlaneBody=1;fillOpacity=100;strokeOpacity=100;overflow=visible;rounded=0;swimlaneLine=1;sketch=0;shadow=0;arcSize=19;strokeWidth=1;fillStyle=auto;swimlaneFillColor=none;metaEdit=1;labelPadding=0;cloneable=1;separatorColor=none;swimlaneHead=1;noLabel=0;direction=east;portConstraint=none;portConstraintRotation=0;rotation=0;connectable=0;snapToPoint=0;perimeter=rectanglePerimeter;dropTarget=1;expand=1;part=1;backgroundOutline=1;movableLabel=1;autosize=1;fixedWidth=0;resizable=1;resizeWidth=0;resizeHeight=0;rotatable=1;treeFolding=0;pointerEvents=1;moveCells=0;comic=0;enumerateValue=123;allowArrows=0;fontFamily=Helvetica;fontSize=13;glass=0;editable=1;movable=1;deletable=1;fillColor=none;strokeColor=#6c8ebf;gradientColor=#7ea6e0;" parent="sc1KZ-z2Gv8KgIhitQs5-10" vertex="1">
            <mxGeometry y="190" width="350" height="52" as="geometry">
              <mxRectangle y="204" width="420" height="50" as="alternateBounds" />
            </mxGeometry>
          </mxCell>
        </object>
        <object label="%nodeDesc%" placeholders="1" nodeDesc="删除组织" shapeType="NODE" id="sc1KZ-z2Gv8KgIhitQs5-19">
          <mxCell style="rounded=0;whiteSpace=wrap;html=1;shadow=0;glass=0;sketch=0;fillStyle=auto;strokeWidth=1;metaEdit=1;resizable=1;rotatable=0;snapToPoint=0;connectable=1;absoluteArcSize=0;noLabel=0;labelPadding=0;allowArrows=1;recursiveResize=1;expand=1;editable=1;movable=1;deletable=1;fixDash=0;collapsible=0;portConstraintRotation=0;points=[[0,0.5,0,0,0],[1,0.5,0,0,0]];backgroundOutline=0;resizeHeight=1;resizeWidth=1;" parent="1" vertex="1">
            <mxGeometry x="-332.5" y="-50" width="135" height="40" as="geometry" />
          </mxCell>
        </object>
        <object label="《%shapeType%》&#xa;%className%&#xa;%classDesc%" placeholders="1" shapeType="COMMAND" classPackage="remove" classDesc="删除组织" className="OrganizationRemove" cmdType="DELETE" id="sc1KZ-z2Gv8KgIhitQs5-20">
          <mxCell style="swimlane;fontStyle=1;align=center;verticalAlign=top;childLayout=stackLayout;horizontal=1;startSize=60;horizontalStack=0;resizeParent=1;resizeParentMax=0;resizeLast=0;collapsible=1;marginBottom=0;fixDash=1;container=1;enumerate=0;treeMoving=1;swimlaneBody=1;fillOpacity=100;strokeOpacity=100;overflow=visible;rounded=0;swimlaneLine=1;sketch=0;shadow=0;arcSize=9;strokeWidth=1;fillStyle=auto;swimlaneFillColor=default;metaEdit=1;labelPadding=0;cloneable=1;separatorColor=none;swimlaneHead=1;noLabel=0;direction=east;portConstraint=none;portConstraintRotation=0;rotation=0;connectable=0;snapToPoint=0;perimeter=rectanglePerimeter;dropTarget=1;expand=1;part=1;backgroundOutline=1;movableLabel=1;autosize=1;fixedWidth=1;resizable=1;resizeWidth=0;resizeHeight=0;rotatable=1;treeFolding=0;pointerEvents=1;moveCells=0;comic=0;enumerateValue=123;allowArrows=0;fontFamily=Helvetica;fontSize=13;fillColor=#d5e8d4;strokeColor=#82b366;" parent="1" vertex="1">
            <mxGeometry x="-440" y="40" width="350" height="194" as="geometry">
              <mxRectangle x="-950" y="80" width="350" height="70" as="alternateBounds" />
            </mxGeometry>
          </mxCell>
        </object>
        <object label="%fieldModify% %fieldName%: %fieldType%    #%fieldDesc%" placeholders="1" shapeType="FIELD" fieldName="id" fieldType="Long" fieldModify="-" fieldDesc="主键" id="sc1KZ-z2Gv8KgIhitQs5-21">
          <mxCell style="text;strokeColor=none;fillColor=none;align=left;verticalAlign=top;spacingLeft=4;spacingRight=4;overflow=hidden;rotatable=0;points=[];portConstraint=none;metaEdit=1;cloneable=1;rotation=0;connectable=1;container=0;dropTarget=1;imageAspect=1;absoluteArcSize=0;portConstraintRotation=0;snapToPoint=0;fixDash=0;pointerEvents=0;enumerate=0;resizeHeight=1;resizeWidth=1;autosize=1;part=1;movable=1;rounded=0;fontFamily=Helvetica;fontSize=13;fontColor=default;comic=1;" parent="sc1KZ-z2Gv8KgIhitQs5-20" vertex="1">
            <mxGeometry y="60" width="350" height="24" as="geometry" />
          </mxCell>
        </object>
        <object label="《%shapeType%》" placeholders="1" shapeType="RULE_LIST" id="sc1KZ-z2Gv8KgIhitQs5-25">
          <mxCell style="swimlane;fontStyle=1;align=center;verticalAlign=top;childLayout=stackLayout;horizontal=1;startSize=28;horizontalStack=0;resizeParent=1;resizeParentMax=0;resizeLast=0;collapsible=1;marginBottom=0;fixDash=1;container=1;enumerate=0;treeMoving=1;swimlaneBody=1;fillOpacity=100;strokeOpacity=100;overflow=visible;rounded=0;swimlaneLine=1;sketch=0;shadow=0;arcSize=19;strokeWidth=1;fillStyle=auto;swimlaneFillColor=none;metaEdit=1;labelPadding=0;cloneable=1;separatorColor=none;swimlaneHead=1;noLabel=0;direction=east;portConstraint=none;portConstraintRotation=0;rotation=0;connectable=0;snapToPoint=0;perimeter=rectanglePerimeter;dropTarget=1;expand=1;part=1;backgroundOutline=1;movableLabel=1;autosize=1;fixedWidth=0;resizable=1;resizeWidth=0;resizeHeight=0;rotatable=1;treeFolding=0;pointerEvents=1;moveCells=0;comic=0;enumerateValue=123;allowArrows=0;fontFamily=Helvetica;fontSize=13;glass=0;editable=1;movable=1;deletable=1;fillColor=none;strokeColor=#b85450;gradientColor=none;" parent="sc1KZ-z2Gv8KgIhitQs5-20" vertex="1">
            <mxGeometry y="84" width="350" height="58" as="geometry">
              <mxRectangle y="256" width="420" height="50" as="alternateBounds" />
            </mxGeometry>
          </mxCell>
        </object>
        <object label="rule: %ruleDesc%" placeholders="1" shapeType="RULE_ITEM" ruleDesc="组织下关联了团队，不允许删除" id="sc1KZ-z2Gv8KgIhitQs5-26">
          <mxCell style="text;strokeColor=none;fillColor=none;align=left;verticalAlign=top;spacingLeft=4;spacingRight=4;overflow=hidden;rotatable=0;points=[];portConstraint=none;metaEdit=1;cloneable=1;rotation=0;connectable=1;container=0;dropTarget=1;imageAspect=1;absoluteArcSize=0;portConstraintRotation=0;snapToPoint=0;fixDash=0;pointerEvents=0;enumerate=0;resizeHeight=1;resizeWidth=1;autosize=1;part=1;movable=1;rounded=0;fontFamily=Helvetica;fontSize=13;fontColor=default;" parent="sc1KZ-z2Gv8KgIhitQs5-25" vertex="1">
            <mxGeometry y="28" width="350" height="30" as="geometry" />
          </mxCell>
        </object>
        <object label="《%shapeType%》" placeholders="1" shapeType="EVENT" id="sc1KZ-z2Gv8KgIhitQs5-27">
          <mxCell style="swimlane;fontStyle=1;align=center;verticalAlign=top;childLayout=stackLayout;horizontal=1;startSize=28;horizontalStack=0;resizeParent=1;resizeParentMax=0;resizeLast=0;collapsible=1;marginBottom=0;fixDash=1;container=1;enumerate=0;treeMoving=1;swimlaneBody=1;fillOpacity=100;strokeOpacity=100;overflow=visible;rounded=0;swimlaneLine=1;sketch=0;shadow=0;arcSize=19;strokeWidth=1;fillStyle=auto;swimlaneFillColor=none;metaEdit=1;labelPadding=0;cloneable=1;separatorColor=none;swimlaneHead=1;noLabel=0;direction=east;portConstraint=none;portConstraintRotation=0;rotation=0;connectable=0;snapToPoint=0;perimeter=rectanglePerimeter;dropTarget=1;expand=1;part=1;backgroundOutline=1;movableLabel=1;autosize=1;fixedWidth=0;resizable=1;resizeWidth=0;resizeHeight=0;rotatable=1;treeFolding=0;pointerEvents=1;moveCells=0;comic=0;enumerateValue=123;allowArrows=0;fontFamily=Helvetica;fontSize=13;glass=0;editable=1;movable=1;deletable=1;fillColor=none;strokeColor=#6c8ebf;gradientColor=#7ea6e0;" parent="sc1KZ-z2Gv8KgIhitQs5-20" vertex="1">
            <mxGeometry y="142" width="350" height="52" as="geometry">
              <mxRectangle y="204" width="420" height="50" as="alternateBounds" />
            </mxGeometry>
          </mxCell>
        </object>
        <object label="《%shapeType%》&#xa;%className%&#xa;%classDesc%" placeholders="1" shapeType="AGGREGATION" className="Organization" classDesc="组织" id="sc1KZ-z2Gv8KgIhitQs5-28">
          <mxCell style="swimlane;fontStyle=3;align=center;verticalAlign=top;childLayout=stackLayout;horizontal=1;startSize=55;horizontalStack=0;resizeParent=1;resizeParentMax=0;resizeLast=0;collapsible=1;marginBottom=0;fixDash=1;container=1;enumerate=0;treeMoving=1;swimlaneBody=1;fillOpacity=100;strokeOpacity=100;overflow=visible;rounded=1;swimlaneLine=1;sketch=0;shadow=0;arcSize=7;fillColor=#d5e8d4;strokeColor=#82b366;strokeWidth=1;fillStyle=auto;swimlaneFillColor=default;metaEdit=1;labelPadding=0;cloneable=1;separatorColor=none;swimlaneHead=1;noLabel=0;direction=east;portConstraint=none;portConstraintRotation=0;rotation=0;connectable=1;snapToPoint=0;perimeter=rectanglePerimeter;dropTarget=1;expand=1;part=1;backgroundOutline=1;movableLabel=1;autosize=1;fixedWidth=0;resizable=1;resizeWidth=0;resizeHeight=0;rotatable=1;treeFolding=0;pointerEvents=1;moveCells=0;comic=0;enumerateValue=123;allowArrows=0;glass=0;fontFamily=Helvetica;fontSize=13;" parent="1" vertex="1">
            <mxGeometry x="-1200" y="400" width="343" height="135" as="geometry">
              <mxRectangle x="70" y="410" width="250" height="50" as="alternateBounds" />
            </mxGeometry>
          </mxCell>
        </object>
        <object label="%fieldModify% %fieldName%: %fieldType%    #%fieldDesc%" placeholders="1" shapeType="FIELD" fieldName="organizationManagerId" fieldType="Long" fieldModify="-" fieldDesc="组织管理员ID" id="sc1KZ-z2Gv8KgIhitQs5-35">
          <mxCell style="text;strokeColor=none;fillColor=none;align=left;verticalAlign=top;spacingLeft=4;spacingRight=4;overflow=hidden;rotatable=0;points=[];portConstraint=none;metaEdit=1;cloneable=1;rotation=0;connectable=1;container=0;dropTarget=1;imageAspect=1;absoluteArcSize=0;portConstraintRotation=0;snapToPoint=0;fixDash=0;pointerEvents=0;enumerate=0;resizeHeight=1;resizeWidth=1;autosize=1;part=1;movable=1;rounded=0;fontFamily=Helvetica;fontSize=13;fontColor=default;comic=1;" parent="sc1KZ-z2Gv8KgIhitQs5-28" vertex="1">
            <mxGeometry y="55" width="343" height="24" as="geometry" />
          </mxCell>
        </object>
        <object label="%fieldModify% %fieldName%: %fieldType%    #%fieldDesc%" placeholders="1" shapeType="FIELD" fieldName="description" fieldType="String" fieldModify="-" fieldDesc="描述信息" id="sc1KZ-z2Gv8KgIhitQs5-34">
          <mxCell style="text;strokeColor=none;fillColor=none;align=left;verticalAlign=top;spacingLeft=4;spacingRight=4;overflow=hidden;rotatable=0;points=[];portConstraint=none;metaEdit=1;cloneable=1;rotation=0;connectable=1;container=0;dropTarget=1;imageAspect=1;absoluteArcSize=0;portConstraintRotation=0;snapToPoint=0;fixDash=0;pointerEvents=0;enumerate=0;resizeHeight=1;resizeWidth=1;autosize=1;part=1;movable=1;rounded=0;fontFamily=Helvetica;fontSize=13;fontColor=default;comic=1;" parent="sc1KZ-z2Gv8KgIhitQs5-28" vertex="1">
            <mxGeometry y="79" width="343" height="24" as="geometry" />
          </mxCell>
        </object>
        <object label="%fieldModify% %fieldName%: %fieldType%    #%fieldDesc%" placeholders="1" shapeType="FIELD" fieldName="name" fieldType="String" fieldModify="-" fieldDesc="组织名称" id="sc1KZ-z2Gv8KgIhitQs5-33">
          <mxCell style="text;strokeColor=none;fillColor=none;align=left;verticalAlign=top;spacingLeft=4;spacingRight=4;overflow=hidden;rotatable=0;points=[];portConstraint=none;metaEdit=1;cloneable=1;rotation=0;connectable=1;container=0;dropTarget=1;imageAspect=1;absoluteArcSize=0;portConstraintRotation=0;snapToPoint=0;fixDash=0;pointerEvents=0;enumerate=0;resizeHeight=1;resizeWidth=1;autosize=1;part=1;movable=1;rounded=0;fontFamily=Helvetica;fontSize=13;fontColor=default;comic=1;" parent="sc1KZ-z2Gv8KgIhitQs5-28" vertex="1">
            <mxGeometry y="103" width="343" height="24" as="geometry" />
          </mxCell>
        </object>
        <mxCell id="sc1KZ-z2Gv8KgIhitQs5-30" value="" style="line;strokeWidth=1;fillColor=none;align=left;verticalAlign=middle;spacingTop=-1;spacingLeft=3;spacingRight=3;rotatable=0;labelPosition=right;points=[];portConstraint=eastwest;cloneable=1;rounded=0;part=1;fontFamily=Helvetica;fontSize=13;fontColor=default;" parent="sc1KZ-z2Gv8KgIhitQs5-28" vertex="1">
          <mxGeometry y="127" width="343" height="8" as="geometry" />
        </mxCell>
        <object label="%nodeDesc%" placeholders="1" nodeDesc="组织管理-分页查询组织信息" shapeType="NODE" id="sc1KZ-z2Gv8KgIhitQs5-36">
          <mxCell style="rounded=0;whiteSpace=wrap;html=1;shadow=0;glass=0;sketch=0;fillStyle=auto;strokeWidth=1;metaEdit=1;resizable=1;rotatable=0;snapToPoint=0;connectable=1;absoluteArcSize=0;noLabel=0;labelPadding=0;allowArrows=1;recursiveResize=1;expand=1;editable=1;movable=1;deletable=1;fixDash=0;collapsible=0;portConstraintRotation=0;points=[[0,0.5,0,0,0],[1,0.5,0,0,0]];backgroundOutline=0;resizeHeight=1;resizeWidth=1;" parent="1" vertex="1">
            <mxGeometry x="-1151.12" y="680" width="210" height="40" as="geometry" />
          </mxCell>
        </object>
        <object label="《%shapeType%》&#xa;%className%&#xa;%classDesc%&#xa;%queryResultType%" placeholders="1" shapeType="PAGE_QUERY" className="OrganizationPageQuery" classDesc="分页查询组织信息" queryResultType="OrganizationDTO" id="sc1KZ-z2Gv8KgIhitQs5-37">
          <mxCell style="swimlane;fontStyle=1;align=center;verticalAlign=top;childLayout=stackLayout;horizontal=1;startSize=80;horizontalStack=0;resizeParent=1;resizeParentMax=0;resizeLast=0;collapsible=1;marginBottom=0;fixDash=1;container=1;enumerate=0;treeMoving=1;swimlaneBody=1;fillOpacity=100;strokeOpacity=100;overflow=visible;rounded=0;swimlaneLine=1;sketch=0;shadow=0;arcSize=3;strokeWidth=1;fillStyle=auto;swimlaneFillColor=none;metaEdit=1;labelPadding=0;cloneable=1;separatorColor=none;swimlaneHead=1;noLabel=0;direction=east;portConstraint=none;portConstraintRotation=0;rotation=0;connectable=1;snapToPoint=0;perimeter=rectanglePerimeter;dropTarget=1;expand=1;part=1;backgroundOutline=1;movableLabel=1;autosize=1;fixedWidth=0;resizable=1;resizeWidth=0;resizeHeight=0;rotatable=1;treeFolding=0;pointerEvents=1;moveCells=0;comic=0;enumerateValue=123;allowArrows=0;fontFamily=Helvetica;fontSize=13;fillColor=#d5e8d4;strokeColor=#82b366;" parent="1" vertex="1">
            <mxGeometry x="-1191.13" y="750" width="317.24999999999955" height="104" as="geometry">
              <mxRectangle y="28" width="250" height="50" as="alternateBounds" />
            </mxGeometry>
          </mxCell>
        </object>
        <object label="%fieldModify% %fieldName%: %fieldType%    #%fieldDesc%" placeholders="1" shapeType="FIELD" fieldName="name" fieldType="String" fieldModify="-" fieldDesc="组织名称" id="sc1KZ-z2Gv8KgIhitQs5-46">
          <mxCell style="text;strokeColor=none;fillColor=none;align=left;verticalAlign=top;spacingLeft=4;spacingRight=4;overflow=hidden;rotatable=0;points=[];portConstraint=none;metaEdit=1;cloneable=1;rotation=0;connectable=1;container=0;dropTarget=1;imageAspect=1;absoluteArcSize=0;portConstraintRotation=0;snapToPoint=0;fixDash=0;pointerEvents=0;enumerate=0;resizeHeight=1;resizeWidth=1;autosize=1;part=1;movable=1;rounded=0;fontFamily=Helvetica;fontSize=13;fontColor=default;comic=1;" parent="sc1KZ-z2Gv8KgIhitQs5-37" vertex="1">
            <mxGeometry y="80" width="317.24999999999955" height="24" as="geometry" />
          </mxCell>
        </object>
        <object label="《%shapeType%》&#xa;%className%&#xa;%classDesc%" placeholders="1" shapeType="QUERY_RESULT" className="OrganizationDTO" classDesc="组织信息" id="sc1KZ-z2Gv8KgIhitQs5-39">
          <mxCell style="swimlane;fontStyle=3;align=center;verticalAlign=top;childLayout=stackLayout;horizontal=1;startSize=55;horizontalStack=0;resizeParent=1;resizeParentMax=0;resizeLast=0;collapsible=1;marginBottom=0;fixDash=1;container=1;enumerate=0;treeMoving=1;swimlaneBody=1;fillOpacity=100;strokeOpacity=100;overflow=visible;rounded=1;swimlaneLine=1;sketch=0;shadow=0;arcSize=12;strokeWidth=1;fillStyle=auto;swimlaneFillColor=none;metaEdit=1;labelPadding=0;cloneable=1;separatorColor=none;swimlaneHead=1;noLabel=0;direction=east;portConstraint=none;portConstraintRotation=0;rotation=0;connectable=1;snapToPoint=0;perimeter=rectanglePerimeter;dropTarget=1;expand=1;part=1;backgroundOutline=1;movableLabel=1;autosize=1;fixedWidth=0;resizable=1;resizeWidth=0;resizeHeight=0;rotatable=1;treeFolding=0;pointerEvents=1;moveCells=0;comic=0;enumerateValue=123;allowArrows=0;glass=0;fontFamily=Helvetica;fontSize=13;fillColor=#d5e8d4;strokeColor=#82b366;" parent="1" vertex="1">
            <mxGeometry x="-1197" y="940" width="330" height="151" as="geometry">
              <mxRectangle x="70" y="410" width="250" height="50" as="alternateBounds" />
            </mxGeometry>
          </mxCell>
        </object>
        <object label="%fieldModify% %fieldName%: %fieldType%    #%fieldDesc%" placeholders="1" shapeType="FIELD" fieldName="id" fieldType="Long" fieldModify="-" fieldDesc="主键" id="2hlqjvpKHTUyL70hyvAz-1">
          <mxCell style="text;strokeColor=none;fillColor=none;align=left;verticalAlign=top;spacingLeft=4;spacingRight=4;overflow=hidden;rotatable=0;points=[];portConstraint=none;metaEdit=1;cloneable=1;rotation=0;connectable=1;container=0;dropTarget=1;imageAspect=1;absoluteArcSize=0;portConstraintRotation=0;snapToPoint=0;fixDash=0;pointerEvents=0;enumerate=0;resizeHeight=1;resizeWidth=1;autosize=1;part=1;movable=1;rounded=0;fontFamily=Helvetica;fontSize=13;fontColor=default;comic=1;" parent="sc1KZ-z2Gv8KgIhitQs5-39" vertex="1">
            <mxGeometry y="55" width="330" height="24" as="geometry" />
          </mxCell>
        </object>
        <object label="%fieldModify% %fieldName%: %fieldType%    #%fieldDesc%" placeholders="1" shapeType="FIELD" fieldName="organizationManagerId" fieldType="Long" fieldModify="-" fieldDesc="组织管理员ID" id="8scukbuJ-bjicZgylgAo-3">
          <mxCell style="text;strokeColor=none;fillColor=none;align=left;verticalAlign=top;spacingLeft=4;spacingRight=4;overflow=hidden;rotatable=0;points=[];portConstraint=none;metaEdit=1;cloneable=1;rotation=0;connectable=1;container=0;dropTarget=1;imageAspect=1;absoluteArcSize=0;portConstraintRotation=0;snapToPoint=0;fixDash=0;pointerEvents=0;enumerate=0;resizeHeight=1;resizeWidth=1;autosize=1;part=1;movable=1;rounded=0;fontFamily=Helvetica;fontSize=13;fontColor=default;comic=1;" parent="sc1KZ-z2Gv8KgIhitQs5-39" vertex="1">
            <mxGeometry y="79" width="330" height="24" as="geometry" />
          </mxCell>
        </object>
        <object label="%fieldModify% %fieldName%: %fieldType%    #%fieldDesc%" placeholders="1" shapeType="FIELD" fieldName="name" fieldType="String" fieldModify="-" fieldDesc="组织名称" id="sc1KZ-z2Gv8KgIhitQs5-43">
          <mxCell style="text;strokeColor=none;fillColor=none;align=left;verticalAlign=top;spacingLeft=4;spacingRight=4;overflow=hidden;rotatable=0;points=[];portConstraint=none;metaEdit=1;cloneable=1;rotation=0;connectable=1;container=0;dropTarget=1;imageAspect=1;absoluteArcSize=0;portConstraintRotation=0;snapToPoint=0;fixDash=0;pointerEvents=0;enumerate=0;resizeHeight=1;resizeWidth=1;autosize=1;part=1;movable=1;rounded=0;fontFamily=Helvetica;fontSize=13;fontColor=default;comic=1;" parent="sc1KZ-z2Gv8KgIhitQs5-39" vertex="1">
            <mxGeometry y="103" width="330" height="24" as="geometry" />
          </mxCell>
        </object>
        <object label="%fieldModify% %fieldName%: %fieldType%    #%fieldDesc%" placeholders="1" shapeType="FIELD" fieldName="description" fieldType="String" fieldModify="-" fieldDesc="描述信息" id="sc1KZ-z2Gv8KgIhitQs5-42">
          <mxCell style="text;strokeColor=none;fillColor=none;align=left;verticalAlign=top;spacingLeft=4;spacingRight=4;overflow=hidden;rotatable=0;points=[];portConstraint=none;metaEdit=1;cloneable=1;rotation=0;connectable=1;container=0;dropTarget=1;imageAspect=1;absoluteArcSize=0;portConstraintRotation=0;snapToPoint=0;fixDash=0;pointerEvents=0;enumerate=0;resizeHeight=1;resizeWidth=1;autosize=1;part=1;movable=1;rounded=0;fontFamily=Helvetica;fontSize=13;fontColor=default;comic=1;" parent="sc1KZ-z2Gv8KgIhitQs5-39" vertex="1">
            <mxGeometry y="127" width="330" height="24" as="geometry" />
          </mxCell>
        </object>
        <object label="%nodeDesc%" placeholders="1" nodeDesc="创建团队" shapeType="NODE" id="V6pODOWmsTAUxBGXdX_y-1">
          <mxCell style="rounded=0;whiteSpace=wrap;html=1;shadow=0;glass=0;sketch=0;fillStyle=auto;strokeWidth=1;metaEdit=1;resizable=1;rotatable=0;snapToPoint=0;connectable=1;absoluteArcSize=0;noLabel=0;labelPadding=0;allowArrows=1;recursiveResize=1;expand=1;editable=1;movable=1;deletable=1;fixDash=0;collapsible=0;portConstraintRotation=0;points=[[0,0.5,0,0,0],[1,0.5,0,0,0]];backgroundOutline=0;resizeHeight=1;resizeWidth=1;" parent="1" vertex="1">
            <mxGeometry x="837" y="-50" width="135" height="40" as="geometry" />
          </mxCell>
        </object>
        <object label="《%shapeType%》&#xa;%className%&#xa;%classDesc%" placeholders="1" shapeType="COMMAND" classPackage="create" classDesc="创建团队" className="TeamCreate" cmdType="ADD" id="V6pODOWmsTAUxBGXdX_y-2">
          <mxCell style="swimlane;fontStyle=1;align=center;verticalAlign=top;childLayout=stackLayout;horizontal=1;startSize=60;horizontalStack=0;resizeParent=1;resizeParentMax=0;resizeLast=0;collapsible=1;marginBottom=0;fixDash=1;container=1;enumerate=0;treeMoving=1;swimlaneBody=1;fillOpacity=100;strokeOpacity=100;overflow=visible;rounded=0;swimlaneLine=1;sketch=0;shadow=0;arcSize=9;strokeWidth=1;fillStyle=auto;swimlaneFillColor=default;metaEdit=1;labelPadding=0;cloneable=1;separatorColor=none;swimlaneHead=1;noLabel=0;direction=east;portConstraint=none;portConstraintRotation=0;rotation=0;connectable=0;snapToPoint=0;perimeter=rectanglePerimeter;dropTarget=1;expand=1;part=1;backgroundOutline=1;movableLabel=1;autosize=1;fixedWidth=1;resizable=1;resizeWidth=0;resizeHeight=0;rotatable=1;treeFolding=0;pointerEvents=1;moveCells=0;comic=0;enumerateValue=123;allowArrows=0;fontFamily=Helvetica;fontSize=13;fillColor=#fff2cc;strokeColor=#d6b656;" parent="1" vertex="1">
            <mxGeometry x="730" y="40" width="350" height="242" as="geometry">
              <mxRectangle x="-950" y="80" width="350" height="70" as="alternateBounds" />
            </mxGeometry>
          </mxCell>
        </object>
        <object label="%fieldModify% %fieldName%: %fieldType%    #%fieldDesc%" placeholders="1" shapeType="FIELD" fieldName="name" fieldType="String" fieldModify="-" fieldDesc="团队名称" id="V6pODOWmsTAUxBGXdX_y-3">
          <mxCell style="text;strokeColor=none;fillColor=none;align=left;verticalAlign=top;spacingLeft=4;spacingRight=4;overflow=hidden;rotatable=0;points=[];portConstraint=none;metaEdit=1;cloneable=1;rotation=0;connectable=1;container=0;dropTarget=1;imageAspect=1;absoluteArcSize=0;portConstraintRotation=0;snapToPoint=0;fixDash=0;pointerEvents=0;enumerate=0;resizeHeight=1;resizeWidth=1;autosize=1;part=1;movable=1;rounded=0;fontFamily=Helvetica;fontSize=13;fontColor=default;comic=1;" parent="V6pODOWmsTAUxBGXdX_y-2" vertex="1">
            <mxGeometry y="60" width="350" height="24" as="geometry" />
          </mxCell>
        </object>
        <object label="%fieldModify% %fieldName%: %fieldType%    #%fieldDesc%" placeholders="1" shapeType="FIELD" fieldName="description" fieldType="String" fieldModify="-" fieldDesc="描述信息" id="V6pODOWmsTAUxBGXdX_y-4">
          <mxCell style="text;strokeColor=none;fillColor=none;align=left;verticalAlign=top;spacingLeft=4;spacingRight=4;overflow=hidden;rotatable=0;points=[];portConstraint=none;metaEdit=1;cloneable=1;rotation=0;connectable=1;container=0;dropTarget=1;imageAspect=1;absoluteArcSize=0;portConstraintRotation=0;snapToPoint=0;fixDash=0;pointerEvents=0;enumerate=0;resizeHeight=1;resizeWidth=1;autosize=1;part=1;movable=1;rounded=0;fontFamily=Helvetica;fontSize=13;fontColor=default;comic=1;" parent="V6pODOWmsTAUxBGXdX_y-2" vertex="1">
            <mxGeometry y="84" width="350" height="24" as="geometry" />
          </mxCell>
        </object>
        <object label="%fieldModify% %fieldName%: %fieldType%    #%fieldDesc%" placeholders="1" shapeType="FIELD" fieldName="organizationId" fieldType="Long" fieldModify="-" fieldDesc="所属组织ID" id="8scukbuJ-bjicZgylgAo-4">
          <mxCell style="text;strokeColor=none;fillColor=none;align=left;verticalAlign=top;spacingLeft=4;spacingRight=4;overflow=hidden;rotatable=0;points=[];portConstraint=none;metaEdit=1;cloneable=1;rotation=0;connectable=1;container=0;dropTarget=1;imageAspect=1;absoluteArcSize=0;portConstraintRotation=0;snapToPoint=0;fixDash=0;pointerEvents=0;enumerate=0;resizeHeight=1;resizeWidth=1;autosize=1;part=1;movable=1;rounded=0;fontFamily=Helvetica;fontSize=13;fontColor=default;comic=1;" parent="V6pODOWmsTAUxBGXdX_y-2" vertex="1">
            <mxGeometry y="108" width="350" height="24" as="geometry" />
          </mxCell>
        </object>
        <object label="《%shapeType%》" placeholders="1" shapeType="RULE_LIST" id="V6pODOWmsTAUxBGXdX_y-6">
          <mxCell style="swimlane;fontStyle=1;align=center;verticalAlign=top;childLayout=stackLayout;horizontal=1;startSize=28;horizontalStack=0;resizeParent=1;resizeParentMax=0;resizeLast=0;collapsible=1;marginBottom=0;fixDash=1;container=1;enumerate=0;treeMoving=1;swimlaneBody=1;fillOpacity=100;strokeOpacity=100;overflow=visible;rounded=0;swimlaneLine=1;sketch=0;shadow=0;arcSize=19;strokeWidth=1;fillStyle=auto;swimlaneFillColor=none;metaEdit=1;labelPadding=0;cloneable=1;separatorColor=none;swimlaneHead=1;noLabel=0;direction=east;portConstraint=none;portConstraintRotation=0;rotation=0;connectable=0;snapToPoint=0;perimeter=rectanglePerimeter;dropTarget=1;expand=1;part=1;backgroundOutline=1;movableLabel=1;autosize=1;fixedWidth=0;resizable=1;resizeWidth=0;resizeHeight=0;rotatable=1;treeFolding=0;pointerEvents=1;moveCells=0;comic=0;enumerateValue=123;allowArrows=0;fontFamily=Helvetica;fontSize=13;glass=0;editable=1;movable=1;deletable=1;fillColor=none;strokeColor=#b85450;gradientColor=none;" parent="V6pODOWmsTAUxBGXdX_y-2" vertex="1">
            <mxGeometry y="132" width="350" height="58" as="geometry">
              <mxRectangle y="256" width="420" height="50" as="alternateBounds" />
            </mxGeometry>
          </mxCell>
        </object>
        <object label="rule: %ruleDesc%" placeholders="1" shapeType="RULE_ITEM" ruleDesc="团队名称唯一" id="V6pODOWmsTAUxBGXdX_y-7">
          <mxCell style="text;strokeColor=none;fillColor=none;align=left;verticalAlign=top;spacingLeft=4;spacingRight=4;overflow=hidden;rotatable=0;points=[];portConstraint=none;metaEdit=1;cloneable=1;rotation=0;connectable=1;container=0;dropTarget=1;imageAspect=1;absoluteArcSize=0;portConstraintRotation=0;snapToPoint=0;fixDash=0;pointerEvents=0;enumerate=0;resizeHeight=1;resizeWidth=1;autosize=1;part=1;movable=1;rounded=0;fontFamily=Helvetica;fontSize=13;fontColor=default;" parent="V6pODOWmsTAUxBGXdX_y-6" vertex="1">
            <mxGeometry y="28" width="350" height="30" as="geometry" />
          </mxCell>
        </object>
        <object label="《%shapeType%》" placeholders="1" shapeType="EVENT" id="V6pODOWmsTAUxBGXdX_y-8">
          <mxCell style="swimlane;fontStyle=1;align=center;verticalAlign=top;childLayout=stackLayout;horizontal=1;startSize=28;horizontalStack=0;resizeParent=1;resizeParentMax=0;resizeLast=0;collapsible=1;marginBottom=0;fixDash=1;container=1;enumerate=0;treeMoving=1;swimlaneBody=1;fillOpacity=100;strokeOpacity=100;overflow=visible;rounded=0;swimlaneLine=1;sketch=0;shadow=0;arcSize=19;strokeWidth=1;fillStyle=auto;swimlaneFillColor=none;metaEdit=1;labelPadding=0;cloneable=1;separatorColor=none;swimlaneHead=1;noLabel=0;direction=east;portConstraint=none;portConstraintRotation=0;rotation=0;connectable=0;snapToPoint=0;perimeter=rectanglePerimeter;dropTarget=1;expand=1;part=1;backgroundOutline=1;movableLabel=1;autosize=1;fixedWidth=0;resizable=1;resizeWidth=0;resizeHeight=0;rotatable=1;treeFolding=0;pointerEvents=1;moveCells=0;comic=0;enumerateValue=123;allowArrows=0;fontFamily=Helvetica;fontSize=13;glass=0;editable=1;movable=1;deletable=1;fillColor=none;strokeColor=#6c8ebf;gradientColor=#7ea6e0;" parent="V6pODOWmsTAUxBGXdX_y-2" vertex="1">
            <mxGeometry y="190" width="350" height="52" as="geometry">
              <mxRectangle y="204" width="420" height="50" as="alternateBounds" />
            </mxGeometry>
          </mxCell>
        </object>
        <object label="%nodeDesc%" placeholders="1" nodeDesc="更新团队信息" shapeType="NODE" id="V6pODOWmsTAUxBGXdX_y-9">
          <mxCell style="rounded=0;whiteSpace=wrap;html=1;shadow=0;glass=0;sketch=0;fillStyle=auto;strokeWidth=1;metaEdit=1;resizable=1;rotatable=0;snapToPoint=0;connectable=1;absoluteArcSize=0;noLabel=0;labelPadding=0;allowArrows=1;recursiveResize=1;expand=1;editable=1;movable=1;deletable=1;fixDash=0;collapsible=0;portConstraintRotation=0;points=[[0,0.5,0,0,0],[1,0.5,0,0,0]];backgroundOutline=0;resizeHeight=1;resizeWidth=1;" parent="1" vertex="1">
            <mxGeometry x="1217" y="-50" width="135" height="40" as="geometry" />
          </mxCell>
        </object>
        <object label="《%shapeType%》&#xa;%className%&#xa;%classDesc%" placeholders="1" shapeType="COMMAND" classPackage="update" classDesc="更新团队信息" className="TeamUpdate" cmdType="UPDATE" id="V6pODOWmsTAUxBGXdX_y-10">
          <mxCell style="swimlane;fontStyle=1;align=center;verticalAlign=top;childLayout=stackLayout;horizontal=1;startSize=60;horizontalStack=0;resizeParent=1;resizeParentMax=0;resizeLast=0;collapsible=1;marginBottom=0;fixDash=1;container=1;enumerate=0;treeMoving=1;swimlaneBody=1;fillOpacity=100;strokeOpacity=100;overflow=visible;rounded=0;swimlaneLine=1;sketch=0;shadow=0;arcSize=9;strokeWidth=1;fillStyle=auto;swimlaneFillColor=default;metaEdit=1;labelPadding=0;cloneable=1;separatorColor=none;swimlaneHead=1;noLabel=0;direction=east;portConstraint=none;portConstraintRotation=0;rotation=0;connectable=0;snapToPoint=0;perimeter=rectanglePerimeter;dropTarget=1;expand=1;part=1;backgroundOutline=1;movableLabel=1;autosize=1;fixedWidth=1;resizable=1;resizeWidth=0;resizeHeight=0;rotatable=1;treeFolding=0;pointerEvents=1;moveCells=0;comic=0;enumerateValue=123;allowArrows=0;fontFamily=Helvetica;fontSize=13;fillColor=#fff2cc;strokeColor=#d6b656;" parent="1" vertex="1">
            <mxGeometry x="1109.5" y="40" width="350" height="242" as="geometry">
              <mxRectangle x="-950" y="80" width="350" height="70" as="alternateBounds" />
            </mxGeometry>
          </mxCell>
        </object>
        <object label="%fieldModify% %fieldName%: %fieldType%    #%fieldDesc%" placeholders="1" shapeType="FIELD" fieldName="id" fieldType="Long" fieldModify="-" fieldDesc="主键" id="V6pODOWmsTAUxBGXdX_y-11">
          <mxCell style="text;strokeColor=none;fillColor=none;align=left;verticalAlign=top;spacingLeft=4;spacingRight=4;overflow=hidden;rotatable=0;points=[];portConstraint=none;metaEdit=1;cloneable=1;rotation=0;connectable=1;container=0;dropTarget=1;imageAspect=1;absoluteArcSize=0;portConstraintRotation=0;snapToPoint=0;fixDash=0;pointerEvents=0;enumerate=0;resizeHeight=1;resizeWidth=1;autosize=1;part=1;movable=1;rounded=0;fontFamily=Helvetica;fontSize=13;fontColor=default;comic=1;" parent="V6pODOWmsTAUxBGXdX_y-10" vertex="1">
            <mxGeometry y="60" width="350" height="24" as="geometry" />
          </mxCell>
        </object>
        <object label="%fieldModify% %fieldName%: %fieldType%    #%fieldDesc%" placeholders="1" shapeType="FIELD" fieldName="name" fieldType="String" fieldModify="-" fieldDesc="团队名称" id="V6pODOWmsTAUxBGXdX_y-12">
          <mxCell style="text;strokeColor=none;fillColor=none;align=left;verticalAlign=top;spacingLeft=4;spacingRight=4;overflow=hidden;rotatable=0;points=[];portConstraint=none;metaEdit=1;cloneable=1;rotation=0;connectable=1;container=0;dropTarget=1;imageAspect=1;absoluteArcSize=0;portConstraintRotation=0;snapToPoint=0;fixDash=0;pointerEvents=0;enumerate=0;resizeHeight=1;resizeWidth=1;autosize=1;part=1;movable=1;rounded=0;fontFamily=Helvetica;fontSize=13;fontColor=default;comic=1;" parent="V6pODOWmsTAUxBGXdX_y-10" vertex="1">
            <mxGeometry y="84" width="350" height="24" as="geometry" />
          </mxCell>
        </object>
        <object label="%fieldModify% %fieldName%: %fieldType%    #%fieldDesc%" placeholders="1" shapeType="FIELD" fieldName="description" fieldType="String" fieldModify="-" fieldDesc="描述信息" id="V6pODOWmsTAUxBGXdX_y-14">
          <mxCell style="text;strokeColor=none;fillColor=none;align=left;verticalAlign=top;spacingLeft=4;spacingRight=4;overflow=hidden;rotatable=0;points=[];portConstraint=none;metaEdit=1;cloneable=1;rotation=0;connectable=1;container=0;dropTarget=1;imageAspect=1;absoluteArcSize=0;portConstraintRotation=0;snapToPoint=0;fixDash=0;pointerEvents=0;enumerate=0;resizeHeight=1;resizeWidth=1;autosize=1;part=1;movable=1;rounded=0;fontFamily=Helvetica;fontSize=13;fontColor=default;comic=1;" parent="V6pODOWmsTAUxBGXdX_y-10" vertex="1">
            <mxGeometry y="108" width="350" height="24" as="geometry" />
          </mxCell>
        </object>
        <object label="《%shapeType%》" placeholders="1" shapeType="RULE_LIST" id="V6pODOWmsTAUxBGXdX_y-15">
          <mxCell style="swimlane;fontStyle=1;align=center;verticalAlign=top;childLayout=stackLayout;horizontal=1;startSize=28;horizontalStack=0;resizeParent=1;resizeParentMax=0;resizeLast=0;collapsible=1;marginBottom=0;fixDash=1;container=1;enumerate=0;treeMoving=1;swimlaneBody=1;fillOpacity=100;strokeOpacity=100;overflow=visible;rounded=0;swimlaneLine=1;sketch=0;shadow=0;arcSize=19;strokeWidth=1;fillStyle=auto;swimlaneFillColor=none;metaEdit=1;labelPadding=0;cloneable=1;separatorColor=none;swimlaneHead=1;noLabel=0;direction=east;portConstraint=none;portConstraintRotation=0;rotation=0;connectable=0;snapToPoint=0;perimeter=rectanglePerimeter;dropTarget=1;expand=1;part=1;backgroundOutline=1;movableLabel=1;autosize=1;fixedWidth=0;resizable=1;resizeWidth=0;resizeHeight=0;rotatable=1;treeFolding=0;pointerEvents=1;moveCells=0;comic=0;enumerateValue=123;allowArrows=0;fontFamily=Helvetica;fontSize=13;glass=0;editable=1;movable=1;deletable=1;fillColor=none;strokeColor=#b85450;gradientColor=none;" parent="V6pODOWmsTAUxBGXdX_y-10" vertex="1">
            <mxGeometry y="132" width="350" height="58" as="geometry">
              <mxRectangle y="256" width="420" height="50" as="alternateBounds" />
            </mxGeometry>
          </mxCell>
        </object>
        <object label="rule: %ruleDesc%" placeholders="1" shapeType="RULE_ITEM" ruleDesc="团队名称唯一" id="V6pODOWmsTAUxBGXdX_y-16">
          <mxCell style="text;strokeColor=none;fillColor=none;align=left;verticalAlign=top;spacingLeft=4;spacingRight=4;overflow=hidden;rotatable=0;points=[];portConstraint=none;metaEdit=1;cloneable=1;rotation=0;connectable=1;container=0;dropTarget=1;imageAspect=1;absoluteArcSize=0;portConstraintRotation=0;snapToPoint=0;fixDash=0;pointerEvents=0;enumerate=0;resizeHeight=1;resizeWidth=1;autosize=1;part=1;movable=1;rounded=0;fontFamily=Helvetica;fontSize=13;fontColor=default;" parent="V6pODOWmsTAUxBGXdX_y-15" vertex="1">
            <mxGeometry y="28" width="350" height="30" as="geometry" />
          </mxCell>
        </object>
        <object label="《%shapeType%》" placeholders="1" shapeType="EVENT" id="V6pODOWmsTAUxBGXdX_y-17">
          <mxCell style="swimlane;fontStyle=1;align=center;verticalAlign=top;childLayout=stackLayout;horizontal=1;startSize=28;horizontalStack=0;resizeParent=1;resizeParentMax=0;resizeLast=0;collapsible=1;marginBottom=0;fixDash=1;container=1;enumerate=0;treeMoving=1;swimlaneBody=1;fillOpacity=100;strokeOpacity=100;overflow=visible;rounded=0;swimlaneLine=1;sketch=0;shadow=0;arcSize=19;strokeWidth=1;fillStyle=auto;swimlaneFillColor=none;metaEdit=1;labelPadding=0;cloneable=1;separatorColor=none;swimlaneHead=1;noLabel=0;direction=east;portConstraint=none;portConstraintRotation=0;rotation=0;connectable=0;snapToPoint=0;perimeter=rectanglePerimeter;dropTarget=1;expand=1;part=1;backgroundOutline=1;movableLabel=1;autosize=1;fixedWidth=0;resizable=1;resizeWidth=0;resizeHeight=0;rotatable=1;treeFolding=0;pointerEvents=1;moveCells=0;comic=0;enumerateValue=123;allowArrows=0;fontFamily=Helvetica;fontSize=13;glass=0;editable=1;movable=1;deletable=1;fillColor=none;strokeColor=#6c8ebf;gradientColor=#7ea6e0;" parent="V6pODOWmsTAUxBGXdX_y-10" vertex="1">
            <mxGeometry y="190" width="350" height="52" as="geometry">
              <mxRectangle y="204" width="420" height="50" as="alternateBounds" />
            </mxGeometry>
          </mxCell>
        </object>
        <object label="%nodeDesc%" placeholders="1" nodeDesc="添加团队成员" shapeType="NODE" id="V6pODOWmsTAUxBGXdX_y-18">
          <mxCell style="rounded=0;whiteSpace=wrap;html=1;shadow=0;glass=0;sketch=0;fillStyle=auto;strokeWidth=1;metaEdit=1;resizable=1;rotatable=0;snapToPoint=0;connectable=1;absoluteArcSize=0;noLabel=0;labelPadding=0;allowArrows=1;recursiveResize=1;expand=1;editable=1;movable=1;deletable=1;fixDash=0;collapsible=0;portConstraintRotation=0;points=[[0,0.5,0,0,0],[1,0.5,0,0,0]];backgroundOutline=0;resizeHeight=1;resizeWidth=1;" parent="1" vertex="1">
            <mxGeometry x="2777.5" y="-50" width="135" height="40" as="geometry" />
          </mxCell>
        </object>
        <object label="《%shapeType%》&#xa;%className%&#xa;%classDesc%" placeholders="1" shapeType="COMMAND" classPackage="memberAdd" classDesc="添加团队成员" className="TeamMemberAdd" cmdType="ADD" id="V6pODOWmsTAUxBGXdX_y-19">
          <mxCell style="swimlane;fontStyle=1;align=center;verticalAlign=top;childLayout=stackLayout;horizontal=1;startSize=60;horizontalStack=0;resizeParent=1;resizeParentMax=0;resizeLast=0;collapsible=1;marginBottom=0;fixDash=1;container=1;enumerate=0;treeMoving=1;swimlaneBody=1;fillOpacity=100;strokeOpacity=100;overflow=visible;rounded=0;swimlaneLine=1;sketch=0;shadow=0;arcSize=9;strokeWidth=1;fillStyle=auto;swimlaneFillColor=default;metaEdit=1;labelPadding=0;cloneable=1;separatorColor=none;swimlaneHead=1;noLabel=0;direction=east;portConstraint=none;portConstraintRotation=0;rotation=0;connectable=0;snapToPoint=0;perimeter=rectanglePerimeter;dropTarget=1;expand=1;part=1;backgroundOutline=1;movableLabel=1;autosize=1;fixedWidth=1;resizable=1;resizeWidth=0;resizeHeight=0;rotatable=1;treeFolding=0;pointerEvents=1;moveCells=0;comic=0;enumerateValue=123;allowArrows=0;fontFamily=Helvetica;fontSize=13;fillColor=#dae8fc;strokeColor=#6c8ebf;" parent="1" vertex="1">
            <mxGeometry x="2670" y="40" width="350" height="218" as="geometry">
              <mxRectangle x="-950" y="80" width="350" height="70" as="alternateBounds" />
            </mxGeometry>
          </mxCell>
        </object>
        <object label="%fieldModify% %fieldName%: %fieldType%    #%fieldDesc%" placeholders="1" shapeType="FIELD" fieldName="accountId" fieldType="Long" fieldModify="-" fieldDesc="成员账号ID" id="V6pODOWmsTAUxBGXdX_y-20">
          <mxCell style="text;strokeColor=none;fillColor=none;align=left;verticalAlign=top;spacingLeft=4;spacingRight=4;overflow=hidden;rotatable=0;points=[];portConstraint=none;metaEdit=1;cloneable=1;rotation=0;connectable=1;container=0;dropTarget=1;imageAspect=1;absoluteArcSize=0;portConstraintRotation=0;snapToPoint=0;fixDash=0;pointerEvents=0;enumerate=0;resizeHeight=1;resizeWidth=1;autosize=1;part=1;movable=1;rounded=0;fontFamily=Helvetica;fontSize=13;fontColor=default;comic=1;" parent="V6pODOWmsTAUxBGXdX_y-19" vertex="1">
            <mxGeometry y="60" width="350" height="24" as="geometry" />
          </mxCell>
        </object>
        <object label="%fieldModify% %fieldName%: %fieldType%    #%fieldDesc%" placeholders="1" shapeType="FIELD" fieldName="teamId" fieldType="Long" fieldModify="-" fieldDesc="团队ID" id="V6pODOWmsTAUxBGXdX_y-22">
          <mxCell style="text;strokeColor=none;fillColor=none;align=left;verticalAlign=top;spacingLeft=4;spacingRight=4;overflow=hidden;rotatable=0;points=[];portConstraint=none;metaEdit=1;cloneable=1;rotation=0;connectable=1;container=0;dropTarget=1;imageAspect=1;absoluteArcSize=0;portConstraintRotation=0;snapToPoint=0;fixDash=0;pointerEvents=0;enumerate=0;resizeHeight=1;resizeWidth=1;autosize=1;part=1;movable=1;rounded=0;fontFamily=Helvetica;fontSize=13;fontColor=default;comic=1;" parent="V6pODOWmsTAUxBGXdX_y-19" vertex="1">
            <mxGeometry y="84" width="350" height="24" as="geometry" />
          </mxCell>
        </object>
        <object label="《%shapeType%》" placeholders="1" shapeType="RULE_LIST" id="V6pODOWmsTAUxBGXdX_y-23">
          <mxCell style="swimlane;fontStyle=1;align=center;verticalAlign=top;childLayout=stackLayout;horizontal=1;startSize=28;horizontalStack=0;resizeParent=1;resizeParentMax=0;resizeLast=0;collapsible=1;marginBottom=0;fixDash=1;container=1;enumerate=0;treeMoving=1;swimlaneBody=1;fillOpacity=100;strokeOpacity=100;overflow=visible;rounded=0;swimlaneLine=1;sketch=0;shadow=0;arcSize=19;strokeWidth=1;fillStyle=auto;swimlaneFillColor=none;metaEdit=1;labelPadding=0;cloneable=1;separatorColor=none;swimlaneHead=1;noLabel=0;direction=east;portConstraint=none;portConstraintRotation=0;rotation=0;connectable=0;snapToPoint=0;perimeter=rectanglePerimeter;dropTarget=1;expand=1;part=1;backgroundOutline=1;movableLabel=1;autosize=1;fixedWidth=0;resizable=1;resizeWidth=0;resizeHeight=0;rotatable=1;treeFolding=0;pointerEvents=1;moveCells=0;comic=0;enumerateValue=123;allowArrows=0;fontFamily=Helvetica;fontSize=13;glass=0;editable=1;movable=1;deletable=1;fillColor=none;strokeColor=#b85450;gradientColor=none;" parent="V6pODOWmsTAUxBGXdX_y-19" vertex="1">
            <mxGeometry y="108" width="350" height="58" as="geometry">
              <mxRectangle y="256" width="420" height="50" as="alternateBounds" />
            </mxGeometry>
          </mxCell>
        </object>
        <object label="rule: %ruleDesc%" placeholders="1" shapeType="RULE_ITEM" ruleDesc="团队成员不能重复添加" id="V6pODOWmsTAUxBGXdX_y-24">
          <mxCell style="text;strokeColor=none;fillColor=none;align=left;verticalAlign=top;spacingLeft=4;spacingRight=4;overflow=hidden;rotatable=0;points=[];portConstraint=none;metaEdit=1;cloneable=1;rotation=0;connectable=1;container=0;dropTarget=1;imageAspect=1;absoluteArcSize=0;portConstraintRotation=0;snapToPoint=0;fixDash=0;pointerEvents=0;enumerate=0;resizeHeight=1;resizeWidth=1;autosize=1;part=1;movable=1;rounded=0;fontFamily=Helvetica;fontSize=13;fontColor=default;" parent="V6pODOWmsTAUxBGXdX_y-23" vertex="1">
            <mxGeometry y="28" width="350" height="30" as="geometry" />
          </mxCell>
        </object>
        <object label="《%shapeType%》" placeholders="1" shapeType="EVENT" id="V6pODOWmsTAUxBGXdX_y-25">
          <mxCell style="swimlane;fontStyle=1;align=center;verticalAlign=top;childLayout=stackLayout;horizontal=1;startSize=28;horizontalStack=0;resizeParent=1;resizeParentMax=0;resizeLast=0;collapsible=1;marginBottom=0;fixDash=1;container=1;enumerate=0;treeMoving=1;swimlaneBody=1;fillOpacity=100;strokeOpacity=100;overflow=visible;rounded=0;swimlaneLine=1;sketch=0;shadow=0;arcSize=19;strokeWidth=1;fillStyle=auto;swimlaneFillColor=none;metaEdit=1;labelPadding=0;cloneable=1;separatorColor=none;swimlaneHead=1;noLabel=0;direction=east;portConstraint=none;portConstraintRotation=0;rotation=0;connectable=0;snapToPoint=0;perimeter=rectanglePerimeter;dropTarget=1;expand=1;part=1;backgroundOutline=1;movableLabel=1;autosize=1;fixedWidth=0;resizable=1;resizeWidth=0;resizeHeight=0;rotatable=1;treeFolding=0;pointerEvents=1;moveCells=0;comic=0;enumerateValue=123;allowArrows=0;fontFamily=Helvetica;fontSize=13;glass=0;editable=1;movable=1;deletable=1;fillColor=none;strokeColor=#6c8ebf;gradientColor=#7ea6e0;" parent="V6pODOWmsTAUxBGXdX_y-19" vertex="1">
            <mxGeometry y="166" width="350" height="52" as="geometry">
              <mxRectangle y="204" width="420" height="50" as="alternateBounds" />
            </mxGeometry>
          </mxCell>
        </object>
        <object label="《%shapeType%》&#xa;%className%&#xa;%classDesc%" placeholders="1" shapeType="AGGREGATION" className="Team" classDesc="团队" id="V6pODOWmsTAUxBGXdX_y-26">
          <mxCell style="swimlane;fontStyle=3;align=center;verticalAlign=top;childLayout=stackLayout;horizontal=1;startSize=55;horizontalStack=0;resizeParent=1;resizeParentMax=0;resizeLast=0;collapsible=1;marginBottom=0;fixDash=1;container=1;enumerate=0;treeMoving=1;swimlaneBody=1;fillOpacity=100;strokeOpacity=100;overflow=visible;rounded=1;swimlaneLine=1;sketch=0;shadow=0;arcSize=7;fillColor=#fff2cc;strokeColor=#d6b656;strokeWidth=1;fillStyle=auto;swimlaneFillColor=default;metaEdit=1;labelPadding=0;cloneable=1;separatorColor=none;swimlaneHead=1;noLabel=0;direction=east;portConstraint=none;portConstraintRotation=0;rotation=0;connectable=1;snapToPoint=0;perimeter=rectanglePerimeter;dropTarget=1;expand=1;part=1;backgroundOutline=1;movableLabel=1;autosize=1;fixedWidth=0;resizable=1;resizeWidth=0;resizeHeight=0;rotatable=1;treeFolding=0;pointerEvents=1;moveCells=0;comic=0;enumerateValue=123;allowArrows=0;glass=0;fontFamily=Helvetica;fontSize=13;fontColor=default;" parent="1" vertex="1">
            <mxGeometry x="727" y="390" width="343" height="159" as="geometry">
              <mxRectangle x="70" y="410" width="250" height="50" as="alternateBounds" />
            </mxGeometry>
          </mxCell>
        </object>
        <object label="%fieldModify% %fieldName%: %fieldType%    #%fieldDesc%" placeholders="1" shapeType="FIELD" fieldName="organizationId" fieldType="Long" fieldModify="-" fieldDesc="所属组织ID" id="8scukbuJ-bjicZgylgAo-9">
          <mxCell style="text;strokeColor=none;fillColor=none;align=left;verticalAlign=top;spacingLeft=4;spacingRight=4;overflow=hidden;rotatable=0;points=[];portConstraint=none;metaEdit=1;cloneable=1;rotation=0;connectable=1;container=0;dropTarget=1;imageAspect=1;absoluteArcSize=0;portConstraintRotation=0;snapToPoint=0;fixDash=0;pointerEvents=0;enumerate=0;resizeHeight=1;resizeWidth=1;autosize=1;part=1;movable=1;rounded=0;fontFamily=Helvetica;fontSize=13;fontColor=default;comic=1;" parent="V6pODOWmsTAUxBGXdX_y-26" vertex="1">
            <mxGeometry y="55" width="343" height="24" as="geometry" />
          </mxCell>
        </object>
        <object label="%fieldModify% %fieldName%: %fieldType%    #%fieldDesc%" placeholders="1" shapeType="FIELD" fieldName="name" fieldType="String" fieldModify="-" fieldDesc="团队名称" id="V6pODOWmsTAUxBGXdX_y-27">
          <mxCell style="text;strokeColor=none;fillColor=none;align=left;verticalAlign=top;spacingLeft=4;spacingRight=4;overflow=hidden;rotatable=0;points=[];portConstraint=none;metaEdit=1;cloneable=1;rotation=0;connectable=1;container=0;dropTarget=1;imageAspect=1;absoluteArcSize=0;portConstraintRotation=0;snapToPoint=0;fixDash=0;pointerEvents=0;enumerate=0;resizeHeight=1;resizeWidth=1;autosize=1;part=1;movable=1;rounded=0;fontFamily=Helvetica;fontSize=13;fontColor=default;comic=1;" parent="V6pODOWmsTAUxBGXdX_y-26" vertex="1">
            <mxGeometry y="79" width="343" height="24" as="geometry" />
          </mxCell>
        </object>
        <object label="%fieldModify% %fieldName%: %fieldType%    #%fieldDesc%" placeholders="1" shapeType="FIELD" fieldName="teamManagerId" fieldType="Long" fieldModify="-" fieldDesc="团队管理员ID" id="V6pODOWmsTAUxBGXdX_y-28">
          <mxCell style="text;strokeColor=none;fillColor=none;align=left;verticalAlign=top;spacingLeft=4;spacingRight=4;overflow=hidden;rotatable=0;points=[];portConstraint=none;metaEdit=1;cloneable=1;rotation=0;connectable=1;container=0;dropTarget=1;imageAspect=1;absoluteArcSize=0;portConstraintRotation=0;snapToPoint=0;fixDash=0;pointerEvents=0;enumerate=0;resizeHeight=1;resizeWidth=1;autosize=1;part=1;movable=1;rounded=0;fontFamily=Helvetica;fontSize=13;fontColor=default;comic=1;" parent="V6pODOWmsTAUxBGXdX_y-26" vertex="1">
            <mxGeometry y="103" width="343" height="24" as="geometry" />
          </mxCell>
        </object>
        <object label="%fieldModify% %fieldName%: %fieldType%    #%fieldDesc%" placeholders="1" shapeType="FIELD" fieldName="description" fieldType="String" fieldModify="-" fieldDesc="描述信息" id="V6pODOWmsTAUxBGXdX_y-29">
          <mxCell style="text;strokeColor=none;fillColor=none;align=left;verticalAlign=top;spacingLeft=4;spacingRight=4;overflow=hidden;rotatable=0;points=[];portConstraint=none;metaEdit=1;cloneable=1;rotation=0;connectable=1;container=0;dropTarget=1;imageAspect=1;absoluteArcSize=0;portConstraintRotation=0;snapToPoint=0;fixDash=0;pointerEvents=0;enumerate=0;resizeHeight=1;resizeWidth=1;autosize=1;part=1;movable=1;rounded=0;fontFamily=Helvetica;fontSize=13;fontColor=default;comic=1;" parent="V6pODOWmsTAUxBGXdX_y-26" vertex="1">
            <mxGeometry y="127" width="343" height="24" as="geometry" />
          </mxCell>
        </object>
        <mxCell id="V6pODOWmsTAUxBGXdX_y-30" value="" style="line;strokeWidth=1;fillColor=none;align=left;verticalAlign=middle;spacingTop=-1;spacingLeft=3;spacingRight=3;rotatable=0;labelPosition=right;points=[];portConstraint=eastwest;cloneable=1;rounded=0;part=1;fontFamily=Helvetica;fontSize=13;fontColor=default;" parent="V6pODOWmsTAUxBGXdX_y-26" vertex="1">
          <mxGeometry y="151" width="343" height="8" as="geometry" />
        </mxCell>
        <object label="%nodeDesc%" placeholders="1" nodeDesc="团队管理-分页查询团队信息" shapeType="NODE" id="V6pODOWmsTAUxBGXdX_y-31">
          <mxCell style="rounded=0;whiteSpace=wrap;html=1;shadow=0;glass=0;sketch=0;fillStyle=auto;strokeWidth=1;metaEdit=1;resizable=1;rotatable=0;snapToPoint=0;connectable=1;absoluteArcSize=0;noLabel=0;labelPadding=0;allowArrows=1;recursiveResize=1;expand=1;editable=1;movable=1;deletable=1;fixDash=0;collapsible=0;portConstraintRotation=0;points=[[0,0.5,0,0,0],[1,0.5,0,0,0]];backgroundOutline=0;resizeHeight=1;resizeWidth=1;" parent="1" vertex="1">
            <mxGeometry x="775.88" y="670" width="210" height="40" as="geometry" />
          </mxCell>
        </object>
        <object label="《%shapeType%》&#xa;%className%&#xa;%classDesc%&#xa;%queryResultType%" placeholders="1" shapeType="PAGE_QUERY" className="TeamPageQuery" classDesc="分页查询团队信息" queryResultType="TeamDTO" id="V6pODOWmsTAUxBGXdX_y-32">
          <mxCell style="swimlane;fontStyle=1;align=center;verticalAlign=top;childLayout=stackLayout;horizontal=1;startSize=80;horizontalStack=0;resizeParent=1;resizeParentMax=0;resizeLast=0;collapsible=1;marginBottom=0;fixDash=1;container=1;enumerate=0;treeMoving=1;swimlaneBody=1;fillOpacity=100;strokeOpacity=100;overflow=visible;rounded=0;swimlaneLine=1;sketch=0;shadow=0;arcSize=3;strokeWidth=1;fillStyle=auto;swimlaneFillColor=none;metaEdit=1;labelPadding=0;cloneable=1;separatorColor=none;swimlaneHead=1;noLabel=0;direction=east;portConstraint=none;portConstraintRotation=0;rotation=0;connectable=1;snapToPoint=0;perimeter=rectanglePerimeter;dropTarget=1;expand=1;part=1;backgroundOutline=1;movableLabel=1;autosize=1;fixedWidth=0;resizable=1;resizeWidth=0;resizeHeight=0;rotatable=1;treeFolding=0;pointerEvents=1;moveCells=0;comic=0;enumerateValue=123;allowArrows=0;fontFamily=Helvetica;fontSize=13;fillColor=#fff2cc;strokeColor=#d6b656;" parent="1" vertex="1">
            <mxGeometry x="735.87" y="740" width="317.24999999999955" height="104" as="geometry">
              <mxRectangle y="28" width="250" height="50" as="alternateBounds" />
            </mxGeometry>
          </mxCell>
        </object>
        <object label="%fieldModify% %fieldName%: %fieldType%    #%fieldDesc%" placeholders="1" shapeType="FIELD" fieldName="name" fieldType="String" fieldModify="-" fieldDesc="团队名称" id="V6pODOWmsTAUxBGXdX_y-33">
          <mxCell style="text;strokeColor=none;fillColor=none;align=left;verticalAlign=top;spacingLeft=4;spacingRight=4;overflow=hidden;rotatable=0;points=[];portConstraint=none;metaEdit=1;cloneable=1;rotation=0;connectable=1;container=0;dropTarget=1;imageAspect=1;absoluteArcSize=0;portConstraintRotation=0;snapToPoint=0;fixDash=0;pointerEvents=0;enumerate=0;resizeHeight=1;resizeWidth=1;autosize=1;part=1;movable=1;rounded=0;fontFamily=Helvetica;fontSize=13;fontColor=default;comic=1;" parent="V6pODOWmsTAUxBGXdX_y-32" vertex="1">
            <mxGeometry y="80" width="317.24999999999955" height="24" as="geometry" />
          </mxCell>
        </object>
        <object label="《%shapeType%》&#xa;%className%&#xa;%classDesc%" placeholders="1" shapeType="QUERY_RESULT" className="TeamDTO" classDesc="团队信息" id="V6pODOWmsTAUxBGXdX_y-34">
          <mxCell style="swimlane;fontStyle=3;align=center;verticalAlign=top;childLayout=stackLayout;horizontal=1;startSize=55;horizontalStack=0;resizeParent=1;resizeParentMax=0;resizeLast=0;collapsible=1;marginBottom=0;fixDash=1;container=1;enumerate=0;treeMoving=1;swimlaneBody=1;fillOpacity=100;strokeOpacity=100;overflow=visible;rounded=1;swimlaneLine=1;sketch=0;shadow=0;arcSize=12;strokeWidth=1;fillStyle=auto;swimlaneFillColor=none;metaEdit=1;labelPadding=0;cloneable=1;separatorColor=none;swimlaneHead=1;noLabel=0;direction=east;portConstraint=none;portConstraintRotation=0;rotation=0;connectable=1;snapToPoint=0;perimeter=rectanglePerimeter;dropTarget=1;expand=1;part=1;backgroundOutline=1;movableLabel=1;autosize=1;fixedWidth=0;resizable=1;resizeWidth=0;resizeHeight=0;rotatable=1;treeFolding=0;pointerEvents=1;moveCells=0;comic=0;enumerateValue=123;allowArrows=0;glass=0;fontFamily=Helvetica;fontSize=13;fillColor=#fff2cc;strokeColor=#d6b656;" parent="1" vertex="1">
            <mxGeometry x="730" y="930" width="330" height="175" as="geometry">
              <mxRectangle x="70" y="410" width="250" height="50" as="alternateBounds" />
            </mxGeometry>
          </mxCell>
        </object>
        <object label="%fieldModify% %fieldName%: %fieldType%    #%fieldDesc%" placeholders="1" shapeType="FIELD" fieldName="id" fieldType="Long" fieldModify="-" fieldDesc="主键" id="2hlqjvpKHTUyL70hyvAz-2">
          <mxCell style="text;strokeColor=none;fillColor=none;align=left;verticalAlign=top;spacingLeft=4;spacingRight=4;overflow=hidden;rotatable=0;points=[];portConstraint=none;metaEdit=1;cloneable=1;rotation=0;connectable=1;container=0;dropTarget=1;imageAspect=1;absoluteArcSize=0;portConstraintRotation=0;snapToPoint=0;fixDash=0;pointerEvents=0;enumerate=0;resizeHeight=1;resizeWidth=1;autosize=1;part=1;movable=1;rounded=0;fontFamily=Helvetica;fontSize=13;fontColor=default;comic=1;" parent="V6pODOWmsTAUxBGXdX_y-34" vertex="1">
            <mxGeometry y="55" width="330" height="24" as="geometry" />
          </mxCell>
        </object>
        <object label="%fieldModify% %fieldName%: %fieldType%    #%fieldDesc%" placeholders="1" shapeType="FIELD" fieldName="organizationId" fieldType="Long" fieldModify="-" fieldDesc="所属组织ID" id="8scukbuJ-bjicZgylgAo-10">
          <mxCell style="text;strokeColor=none;fillColor=none;align=left;verticalAlign=top;spacingLeft=4;spacingRight=4;overflow=hidden;rotatable=0;points=[];portConstraint=none;metaEdit=1;cloneable=1;rotation=0;connectable=1;container=0;dropTarget=1;imageAspect=1;absoluteArcSize=0;portConstraintRotation=0;snapToPoint=0;fixDash=0;pointerEvents=0;enumerate=0;resizeHeight=1;resizeWidth=1;autosize=1;part=1;movable=1;rounded=0;fontFamily=Helvetica;fontSize=13;fontColor=default;comic=1;" parent="V6pODOWmsTAUxBGXdX_y-34" vertex="1">
            <mxGeometry y="79" width="330" height="24" as="geometry" />
          </mxCell>
        </object>
        <object label="%fieldModify% %fieldName%: %fieldType%    #%fieldDesc%" placeholders="1" shapeType="FIELD" fieldName="name" fieldType="String" fieldModify="-" fieldDesc="团队名称" id="V6pODOWmsTAUxBGXdX_y-35">
          <mxCell style="text;strokeColor=none;fillColor=none;align=left;verticalAlign=top;spacingLeft=4;spacingRight=4;overflow=hidden;rotatable=0;points=[];portConstraint=none;metaEdit=1;cloneable=1;rotation=0;connectable=1;container=0;dropTarget=1;imageAspect=1;absoluteArcSize=0;portConstraintRotation=0;snapToPoint=0;fixDash=0;pointerEvents=0;enumerate=0;resizeHeight=1;resizeWidth=1;autosize=1;part=1;movable=1;rounded=0;fontFamily=Helvetica;fontSize=13;fontColor=default;comic=1;" parent="V6pODOWmsTAUxBGXdX_y-34" vertex="1">
            <mxGeometry y="103" width="330" height="24" as="geometry" />
          </mxCell>
        </object>
        <object label="%fieldModify% %fieldName%: %fieldType%    #%fieldDesc%" placeholders="1" shapeType="FIELD" fieldName="description" fieldType="String" fieldModify="-" fieldDesc="描述信息" id="V6pODOWmsTAUxBGXdX_y-36">
          <mxCell style="text;strokeColor=none;fillColor=none;align=left;verticalAlign=top;spacingLeft=4;spacingRight=4;overflow=hidden;rotatable=0;points=[];portConstraint=none;metaEdit=1;cloneable=1;rotation=0;connectable=1;container=0;dropTarget=1;imageAspect=1;absoluteArcSize=0;portConstraintRotation=0;snapToPoint=0;fixDash=0;pointerEvents=0;enumerate=0;resizeHeight=1;resizeWidth=1;autosize=1;part=1;movable=1;rounded=0;fontFamily=Helvetica;fontSize=13;fontColor=default;comic=1;" parent="V6pODOWmsTAUxBGXdX_y-34" vertex="1">
            <mxGeometry y="127" width="330" height="24" as="geometry" />
          </mxCell>
        </object>
        <object label="%fieldModify% %fieldName%: %fieldType%    #%fieldDesc%" placeholders="1" shapeType="FIELD" fieldName="teamManagerId" fieldType="Long" fieldModify="-" fieldDesc="团队管理员ID" id="8scukbuJ-bjicZgylgAo-6">
          <mxCell style="text;strokeColor=none;fillColor=none;align=left;verticalAlign=top;spacingLeft=4;spacingRight=4;overflow=hidden;rotatable=0;points=[];portConstraint=none;metaEdit=1;cloneable=1;rotation=0;connectable=1;container=0;dropTarget=1;imageAspect=1;absoluteArcSize=0;portConstraintRotation=0;snapToPoint=0;fixDash=0;pointerEvents=0;enumerate=0;resizeHeight=1;resizeWidth=1;autosize=1;part=1;movable=1;rounded=0;fontFamily=Helvetica;fontSize=13;fontColor=default;comic=1;" parent="V6pODOWmsTAUxBGXdX_y-34" vertex="1">
            <mxGeometry y="151" width="330" height="24" as="geometry" />
          </mxCell>
        </object>
        <object label="%nodeDesc%" placeholders="1" nodeDesc="删除团队" shapeType="NODE" id="V6pODOWmsTAUxBGXdX_y-38">
          <mxCell style="rounded=0;whiteSpace=wrap;html=1;shadow=0;glass=0;sketch=0;fillStyle=auto;strokeWidth=1;metaEdit=1;resizable=1;rotatable=0;snapToPoint=0;connectable=1;absoluteArcSize=0;noLabel=0;labelPadding=0;allowArrows=1;recursiveResize=1;expand=1;editable=1;movable=1;deletable=1;fixDash=0;collapsible=0;portConstraintRotation=0;points=[[0,0.5,0,0,0],[1,0.5,0,0,0]];backgroundOutline=0;resizeHeight=1;resizeWidth=1;" parent="1" vertex="1">
            <mxGeometry x="1607.5" y="-50" width="135" height="40" as="geometry" />
          </mxCell>
        </object>
        <object label="《%shapeType%》&#xa;%className%&#xa;%classDesc%" placeholders="1" shapeType="COMMAND" classPackage="remove" classDesc="删除团队" className="TeamRemove" cmdType="DELETE" id="V6pODOWmsTAUxBGXdX_y-39">
          <mxCell style="swimlane;fontStyle=1;align=center;verticalAlign=top;childLayout=stackLayout;horizontal=1;startSize=60;horizontalStack=0;resizeParent=1;resizeParentMax=0;resizeLast=0;collapsible=1;marginBottom=0;fixDash=1;container=1;enumerate=0;treeMoving=1;swimlaneBody=1;fillOpacity=100;strokeOpacity=100;overflow=visible;rounded=0;swimlaneLine=1;sketch=0;shadow=0;arcSize=9;strokeWidth=1;fillStyle=auto;swimlaneFillColor=default;metaEdit=1;labelPadding=0;cloneable=1;separatorColor=none;swimlaneHead=1;noLabel=0;direction=east;portConstraint=none;portConstraintRotation=0;rotation=0;connectable=0;snapToPoint=0;perimeter=rectanglePerimeter;dropTarget=1;expand=1;part=1;backgroundOutline=1;movableLabel=1;autosize=1;fixedWidth=1;resizable=1;resizeWidth=0;resizeHeight=0;rotatable=1;treeFolding=0;pointerEvents=1;moveCells=0;comic=0;enumerateValue=123;allowArrows=0;fontFamily=Helvetica;fontSize=13;fillColor=#fff2cc;strokeColor=#d6b656;" parent="1" vertex="1">
            <mxGeometry x="1500" y="40" width="350" height="194" as="geometry">
              <mxRectangle x="-950" y="80" width="350" height="70" as="alternateBounds" />
            </mxGeometry>
          </mxCell>
        </object>
        <object label="%fieldModify% %fieldName%: %fieldType%    #%fieldDesc%" placeholders="1" shapeType="FIELD" fieldName="id" fieldType="Long" fieldModify="-" fieldDesc="主键" id="V6pODOWmsTAUxBGXdX_y-40">
          <mxCell style="text;strokeColor=none;fillColor=none;align=left;verticalAlign=top;spacingLeft=4;spacingRight=4;overflow=hidden;rotatable=0;points=[];portConstraint=none;metaEdit=1;cloneable=1;rotation=0;connectable=1;container=0;dropTarget=1;imageAspect=1;absoluteArcSize=0;portConstraintRotation=0;snapToPoint=0;fixDash=0;pointerEvents=0;enumerate=0;resizeHeight=1;resizeWidth=1;autosize=1;part=1;movable=1;rounded=0;fontFamily=Helvetica;fontSize=13;fontColor=default;comic=1;" parent="V6pODOWmsTAUxBGXdX_y-39" vertex="1">
            <mxGeometry y="60" width="350" height="24" as="geometry" />
          </mxCell>
        </object>
        <object label="《%shapeType%》" placeholders="1" shapeType="RULE_LIST" id="V6pODOWmsTAUxBGXdX_y-41">
          <mxCell style="swimlane;fontStyle=1;align=center;verticalAlign=top;childLayout=stackLayout;horizontal=1;startSize=28;horizontalStack=0;resizeParent=1;resizeParentMax=0;resizeLast=0;collapsible=1;marginBottom=0;fixDash=1;container=1;enumerate=0;treeMoving=1;swimlaneBody=1;fillOpacity=100;strokeOpacity=100;overflow=visible;rounded=0;swimlaneLine=1;sketch=0;shadow=0;arcSize=19;strokeWidth=1;fillStyle=auto;swimlaneFillColor=none;metaEdit=1;labelPadding=0;cloneable=1;separatorColor=none;swimlaneHead=1;noLabel=0;direction=east;portConstraint=none;portConstraintRotation=0;rotation=0;connectable=0;snapToPoint=0;perimeter=rectanglePerimeter;dropTarget=1;expand=1;part=1;backgroundOutline=1;movableLabel=1;autosize=1;fixedWidth=0;resizable=1;resizeWidth=0;resizeHeight=0;rotatable=1;treeFolding=0;pointerEvents=1;moveCells=0;comic=0;enumerateValue=123;allowArrows=0;fontFamily=Helvetica;fontSize=13;glass=0;editable=1;movable=1;deletable=1;fillColor=none;strokeColor=#b85450;gradientColor=none;" parent="V6pODOWmsTAUxBGXdX_y-39" vertex="1">
            <mxGeometry y="84" width="350" height="58" as="geometry">
              <mxRectangle y="256" width="420" height="50" as="alternateBounds" />
            </mxGeometry>
          </mxCell>
        </object>
        <object label="rule: %ruleDesc%" placeholders="1" shapeType="RULE_ITEM" ruleDesc="团队下关联了业务域，不允许删除" id="V6pODOWmsTAUxBGXdX_y-42">
          <mxCell style="text;strokeColor=none;fillColor=none;align=left;verticalAlign=top;spacingLeft=4;spacingRight=4;overflow=hidden;rotatable=0;points=[];portConstraint=none;metaEdit=1;cloneable=1;rotation=0;connectable=1;container=0;dropTarget=1;imageAspect=1;absoluteArcSize=0;portConstraintRotation=0;snapToPoint=0;fixDash=0;pointerEvents=0;enumerate=0;resizeHeight=1;resizeWidth=1;autosize=1;part=1;movable=1;rounded=0;fontFamily=Helvetica;fontSize=13;fontColor=default;" parent="V6pODOWmsTAUxBGXdX_y-41" vertex="1">
            <mxGeometry y="28" width="350" height="30" as="geometry" />
          </mxCell>
        </object>
        <object label="《%shapeType%》" placeholders="1" shapeType="EVENT" id="V6pODOWmsTAUxBGXdX_y-43">
          <mxCell style="swimlane;fontStyle=1;align=center;verticalAlign=top;childLayout=stackLayout;horizontal=1;startSize=28;horizontalStack=0;resizeParent=1;resizeParentMax=0;resizeLast=0;collapsible=1;marginBottom=0;fixDash=1;container=1;enumerate=0;treeMoving=1;swimlaneBody=1;fillOpacity=100;strokeOpacity=100;overflow=visible;rounded=0;swimlaneLine=1;sketch=0;shadow=0;arcSize=19;strokeWidth=1;fillStyle=auto;swimlaneFillColor=none;metaEdit=1;labelPadding=0;cloneable=1;separatorColor=none;swimlaneHead=1;noLabel=0;direction=east;portConstraint=none;portConstraintRotation=0;rotation=0;connectable=0;snapToPoint=0;perimeter=rectanglePerimeter;dropTarget=1;expand=1;part=1;backgroundOutline=1;movableLabel=1;autosize=1;fixedWidth=0;resizable=1;resizeWidth=0;resizeHeight=0;rotatable=1;treeFolding=0;pointerEvents=1;moveCells=0;comic=0;enumerateValue=123;allowArrows=0;fontFamily=Helvetica;fontSize=13;glass=0;editable=1;movable=1;deletable=1;fillColor=none;strokeColor=#6c8ebf;gradientColor=#7ea6e0;" parent="V6pODOWmsTAUxBGXdX_y-39" vertex="1">
            <mxGeometry y="142" width="350" height="52" as="geometry">
              <mxRectangle y="204" width="420" height="50" as="alternateBounds" />
            </mxGeometry>
          </mxCell>
        </object>
        <object label="《%shapeType%》&#xa;%className%&#xa;%classDesc%" placeholders="1" shapeType="AGGREGATION" className="TeamMember" classDesc="团队成员" id="V6pODOWmsTAUxBGXdX_y-44">
          <mxCell style="swimlane;fontStyle=3;align=center;verticalAlign=top;childLayout=stackLayout;horizontal=1;startSize=55;horizontalStack=0;resizeParent=1;resizeParentMax=0;resizeLast=0;collapsible=1;marginBottom=0;fixDash=1;container=1;enumerate=0;treeMoving=1;swimlaneBody=1;fillOpacity=100;strokeOpacity=100;overflow=visible;rounded=1;swimlaneLine=1;sketch=0;shadow=0;arcSize=7;fillColor=#dae8fc;strokeColor=#6c8ebf;strokeWidth=1;fillStyle=auto;swimlaneFillColor=default;metaEdit=1;labelPadding=0;cloneable=1;separatorColor=none;swimlaneHead=1;noLabel=0;direction=east;portConstraint=none;portConstraintRotation=0;rotation=0;connectable=1;snapToPoint=0;perimeter=rectanglePerimeter;dropTarget=1;expand=1;part=1;backgroundOutline=1;movableLabel=1;autosize=1;fixedWidth=0;resizable=1;resizeWidth=0;resizeHeight=0;rotatable=1;treeFolding=0;pointerEvents=1;moveCells=0;comic=0;enumerateValue=123;allowArrows=0;glass=0;fontFamily=Helvetica;fontSize=13;" parent="1" vertex="1">
            <mxGeometry x="1117" y="390" width="343" height="135" as="geometry">
              <mxRectangle x="70" y="410" width="250" height="50" as="alternateBounds" />
            </mxGeometry>
          </mxCell>
        </object>
        <object label="%fieldModify% %fieldName%: %fieldType%    #%fieldDesc%" placeholders="1" shapeType="FIELD" fieldName="teamId" fieldType="Long" fieldModify="-" fieldDesc="团队ID" id="V6pODOWmsTAUxBGXdX_y-45">
          <mxCell style="text;strokeColor=none;fillColor=none;align=left;verticalAlign=top;spacingLeft=4;spacingRight=4;overflow=hidden;rotatable=0;points=[];portConstraint=none;metaEdit=1;cloneable=1;rotation=0;connectable=1;container=0;dropTarget=1;imageAspect=1;absoluteArcSize=0;portConstraintRotation=0;snapToPoint=0;fixDash=0;pointerEvents=0;enumerate=0;resizeHeight=1;resizeWidth=1;autosize=1;part=1;movable=1;rounded=0;fontFamily=Helvetica;fontSize=13;fontColor=default;comic=1;" parent="V6pODOWmsTAUxBGXdX_y-44" vertex="1">
            <mxGeometry y="55" width="343" height="24" as="geometry" />
          </mxCell>
        </object>
        <object label="%fieldModify% %fieldName%: %fieldType%    #%fieldDesc%" placeholders="1" shapeType="FIELD" fieldName="accountId" fieldType="Long" fieldModify="-" fieldDesc="成员账号ID" id="V6pODOWmsTAUxBGXdX_y-46">
          <mxCell style="text;strokeColor=none;fillColor=none;align=left;verticalAlign=top;spacingLeft=4;spacingRight=4;overflow=hidden;rotatable=0;points=[];portConstraint=none;metaEdit=1;cloneable=1;rotation=0;connectable=1;container=0;dropTarget=1;imageAspect=1;absoluteArcSize=0;portConstraintRotation=0;snapToPoint=0;fixDash=0;pointerEvents=0;enumerate=0;resizeHeight=1;resizeWidth=1;autosize=1;part=1;movable=1;rounded=0;fontFamily=Helvetica;fontSize=13;fontColor=default;comic=1;" parent="V6pODOWmsTAUxBGXdX_y-44" vertex="1">
            <mxGeometry y="79" width="343" height="24" as="geometry" />
          </mxCell>
        </object>
        <object label="%fieldModify% %fieldName%: %fieldType%    #%fieldDesc%" placeholders="1" shapeType="FIELD" fieldName="memberTypeList" fieldType="List&lt;MemberType&gt;" fieldModify="-" fieldDesc="成员类型（1-产品经理，2-架构师， 3-开发者）" id="078rd7bjTkosUVpx9Eoj-2">
          <mxCell style="text;strokeColor=none;fillColor=none;align=left;verticalAlign=top;spacingLeft=4;spacingRight=4;overflow=hidden;rotatable=0;points=[];portConstraint=none;metaEdit=1;cloneable=1;rotation=0;connectable=1;container=0;dropTarget=1;imageAspect=1;absoluteArcSize=0;portConstraintRotation=0;snapToPoint=0;fixDash=0;pointerEvents=0;enumerate=0;resizeHeight=1;resizeWidth=1;autosize=1;part=1;movable=1;rounded=0;fontFamily=Helvetica;fontSize=13;fontColor=default;comic=1;" parent="V6pODOWmsTAUxBGXdX_y-44" vertex="1">
            <mxGeometry y="103" width="343" height="24" as="geometry" />
          </mxCell>
        </object>
        <mxCell id="V6pODOWmsTAUxBGXdX_y-48" value="" style="line;strokeWidth=1;fillColor=none;align=left;verticalAlign=middle;spacingTop=-1;spacingLeft=3;spacingRight=3;rotatable=0;labelPosition=right;points=[];portConstraint=eastwest;cloneable=1;rounded=0;part=1;fontFamily=Helvetica;fontSize=13;fontColor=default;" parent="V6pODOWmsTAUxBGXdX_y-44" vertex="1">
          <mxGeometry y="127" width="343" height="8" as="geometry" />
        </mxCell>
        <object label="%nodeDesc%" placeholders="1" nodeDesc="绑定团队成员职位" shapeType="NODE" id="V6pODOWmsTAUxBGXdX_y-49">
          <mxCell style="rounded=0;whiteSpace=wrap;html=1;shadow=0;glass=0;sketch=0;fillStyle=auto;strokeWidth=1;metaEdit=1;resizable=1;rotatable=0;snapToPoint=0;connectable=1;absoluteArcSize=0;noLabel=0;labelPadding=0;allowArrows=1;recursiveResize=1;expand=1;editable=1;movable=1;deletable=1;fixDash=0;collapsible=0;portConstraintRotation=0;points=[[0,0.5,0,0,0],[1,0.5,0,0,0]];backgroundOutline=0;resizeHeight=1;resizeWidth=1;" parent="1" vertex="1">
            <mxGeometry x="3567.5" y="-50" width="135" height="40" as="geometry" />
          </mxCell>
        </object>
        <object label="《%shapeType%》&#xa;%className%&#xa;%classDesc%" placeholders="1" shapeType="COMMAND" classPackage="memberRoleBind" classDesc="绑定团队成员职位" className="TeamMemberRoleBind" cmdType="UPDATE" id="V6pODOWmsTAUxBGXdX_y-50">
          <mxCell style="swimlane;fontStyle=1;align=center;verticalAlign=top;childLayout=stackLayout;horizontal=1;startSize=60;horizontalStack=0;resizeParent=1;resizeParentMax=0;resizeLast=0;collapsible=1;marginBottom=0;fixDash=1;container=1;enumerate=0;treeMoving=1;swimlaneBody=1;fillOpacity=100;strokeOpacity=100;overflow=visible;rounded=0;swimlaneLine=1;sketch=0;shadow=0;arcSize=9;strokeWidth=1;fillStyle=auto;swimlaneFillColor=default;metaEdit=1;labelPadding=0;cloneable=1;separatorColor=none;swimlaneHead=1;noLabel=0;direction=east;portConstraint=none;portConstraintRotation=0;rotation=0;connectable=0;snapToPoint=0;perimeter=rectanglePerimeter;dropTarget=1;expand=1;part=1;backgroundOutline=1;movableLabel=1;autosize=1;fixedWidth=1;resizable=1;resizeWidth=0;resizeHeight=0;rotatable=1;treeFolding=0;pointerEvents=1;moveCells=0;comic=0;enumerateValue=123;allowArrows=0;fontFamily=Helvetica;fontSize=13;fillColor=#dae8fc;strokeColor=#6c8ebf;" parent="1" vertex="1">
            <mxGeometry x="3460" y="40" width="350" height="218" as="geometry">
              <mxRectangle x="-950" y="80" width="350" height="70" as="alternateBounds" />
            </mxGeometry>
          </mxCell>
        </object>
        <object label="%fieldModify% %fieldName%: %fieldType%    #%fieldDesc%" placeholders="1" shapeType="FIELD" fieldName="id" fieldType="Long" fieldModify="-" fieldDesc="主键" id="V6pODOWmsTAUxBGXdX_y-51">
          <mxCell style="text;strokeColor=none;fillColor=none;align=left;verticalAlign=top;spacingLeft=4;spacingRight=4;overflow=hidden;rotatable=0;points=[];portConstraint=none;metaEdit=1;cloneable=1;rotation=0;connectable=1;container=0;dropTarget=1;imageAspect=1;absoluteArcSize=0;portConstraintRotation=0;snapToPoint=0;fixDash=0;pointerEvents=0;enumerate=0;resizeHeight=1;resizeWidth=1;autosize=1;part=1;movable=1;rounded=0;fontFamily=Helvetica;fontSize=13;fontColor=default;comic=1;" parent="V6pODOWmsTAUxBGXdX_y-50" vertex="1">
            <mxGeometry y="60" width="350" height="24" as="geometry" />
          </mxCell>
        </object>
        <object label="%fieldModify% %fieldName%: %fieldType%    #%fieldDesc%" placeholders="1" shapeType="FIELD" fieldName="memberTypeList" fieldType="List&lt;MemberType&gt;" fieldModify="-" fieldDesc="成员类型（1-产品经理，2-架构师， 3-开发者）" id="V6pODOWmsTAUxBGXdX_y-53">
          <mxCell style="text;strokeColor=none;fillColor=none;align=left;verticalAlign=top;spacingLeft=4;spacingRight=4;overflow=hidden;rotatable=0;points=[];portConstraint=none;metaEdit=1;cloneable=1;rotation=0;connectable=1;container=0;dropTarget=1;imageAspect=1;absoluteArcSize=0;portConstraintRotation=0;snapToPoint=0;fixDash=0;pointerEvents=0;enumerate=0;resizeHeight=1;resizeWidth=1;autosize=1;part=1;movable=1;rounded=0;fontFamily=Helvetica;fontSize=13;fontColor=default;comic=1;" parent="V6pODOWmsTAUxBGXdX_y-50" vertex="1">
            <mxGeometry y="84" width="350" height="24" as="geometry" />
          </mxCell>
        </object>
        <object label="《%shapeType%》" placeholders="1" shapeType="RULE_LIST" id="V6pODOWmsTAUxBGXdX_y-55">
          <mxCell style="swimlane;fontStyle=1;align=center;verticalAlign=top;childLayout=stackLayout;horizontal=1;startSize=28;horizontalStack=0;resizeParent=1;resizeParentMax=0;resizeLast=0;collapsible=1;marginBottom=0;fixDash=1;container=1;enumerate=0;treeMoving=1;swimlaneBody=1;fillOpacity=100;strokeOpacity=100;overflow=visible;rounded=0;swimlaneLine=1;sketch=0;shadow=0;arcSize=19;strokeWidth=1;fillStyle=auto;swimlaneFillColor=none;metaEdit=1;labelPadding=0;cloneable=1;separatorColor=none;swimlaneHead=1;noLabel=0;direction=east;portConstraint=none;portConstraintRotation=0;rotation=0;connectable=0;snapToPoint=0;perimeter=rectanglePerimeter;dropTarget=1;expand=1;part=1;backgroundOutline=1;movableLabel=1;autosize=1;fixedWidth=0;resizable=1;resizeWidth=0;resizeHeight=0;rotatable=1;treeFolding=0;pointerEvents=1;moveCells=0;comic=0;enumerateValue=123;allowArrows=0;fontFamily=Helvetica;fontSize=13;glass=0;editable=1;movable=1;deletable=1;fillColor=none;strokeColor=#b85450;gradientColor=none;" parent="V6pODOWmsTAUxBGXdX_y-50" vertex="1">
            <mxGeometry y="108" width="350" height="58" as="geometry">
              <mxRectangle y="256" width="420" height="50" as="alternateBounds" />
            </mxGeometry>
          </mxCell>
        </object>
        <object label="《%shapeType%》" placeholders="1" shapeType="EVENT" id="V6pODOWmsTAUxBGXdX_y-57">
          <mxCell style="swimlane;fontStyle=1;align=center;verticalAlign=top;childLayout=stackLayout;horizontal=1;startSize=28;horizontalStack=0;resizeParent=1;resizeParentMax=0;resizeLast=0;collapsible=1;marginBottom=0;fixDash=1;container=1;enumerate=0;treeMoving=1;swimlaneBody=1;fillOpacity=100;strokeOpacity=100;overflow=visible;rounded=0;swimlaneLine=1;sketch=0;shadow=0;arcSize=19;strokeWidth=1;fillStyle=auto;swimlaneFillColor=none;metaEdit=1;labelPadding=0;cloneable=1;separatorColor=none;swimlaneHead=1;noLabel=0;direction=east;portConstraint=none;portConstraintRotation=0;rotation=0;connectable=0;snapToPoint=0;perimeter=rectanglePerimeter;dropTarget=1;expand=1;part=1;backgroundOutline=1;movableLabel=1;autosize=1;fixedWidth=0;resizable=1;resizeWidth=0;resizeHeight=0;rotatable=1;treeFolding=0;pointerEvents=1;moveCells=0;comic=0;enumerateValue=123;allowArrows=0;fontFamily=Helvetica;fontSize=13;glass=0;editable=1;movable=1;deletable=1;fillColor=none;strokeColor=#6c8ebf;gradientColor=#7ea6e0;" parent="V6pODOWmsTAUxBGXdX_y-50" vertex="1">
            <mxGeometry y="166" width="350" height="52" as="geometry">
              <mxRectangle y="204" width="420" height="50" as="alternateBounds" />
            </mxGeometry>
          </mxCell>
        </object>
        <object label="%nodeDesc%" placeholders="1" nodeDesc="解绑团队成员职位" shapeType="NODE" id="V6pODOWmsTAUxBGXdX_y-58">
          <mxCell style="rounded=0;whiteSpace=wrap;html=1;shadow=0;glass=0;sketch=0;fillStyle=auto;strokeWidth=1;metaEdit=1;resizable=1;rotatable=0;snapToPoint=0;connectable=1;absoluteArcSize=0;noLabel=0;labelPadding=0;allowArrows=1;recursiveResize=1;expand=1;editable=1;movable=1;deletable=1;fixDash=0;collapsible=0;portConstraintRotation=0;points=[[0,0.5,0,0,0],[1,0.5,0,0,0]];backgroundOutline=0;resizeHeight=1;resizeWidth=1;" parent="1" vertex="1">
            <mxGeometry x="3957.5" y="-50" width="135" height="40" as="geometry" />
          </mxCell>
        </object>
        <object label="《%shapeType%》&#xa;%className%&#xa;%classDesc%" placeholders="1" shapeType="COMMAND" classPackage="memberRoleUnbind" classDesc="解绑团队成员职位" className="TeamMemberRoleUnbind" cmdType="" id="V6pODOWmsTAUxBGXdX_y-59">
          <mxCell style="swimlane;fontStyle=1;align=center;verticalAlign=top;childLayout=stackLayout;horizontal=1;startSize=60;horizontalStack=0;resizeParent=1;resizeParentMax=0;resizeLast=0;collapsible=1;marginBottom=0;fixDash=1;container=1;enumerate=0;treeMoving=1;swimlaneBody=1;fillOpacity=100;strokeOpacity=100;overflow=visible;rounded=0;swimlaneLine=1;sketch=0;shadow=0;arcSize=9;strokeWidth=1;fillStyle=auto;swimlaneFillColor=default;metaEdit=1;labelPadding=0;cloneable=1;separatorColor=none;swimlaneHead=1;noLabel=0;direction=east;portConstraint=none;portConstraintRotation=0;rotation=0;connectable=0;snapToPoint=0;perimeter=rectanglePerimeter;dropTarget=1;expand=1;part=1;backgroundOutline=1;movableLabel=1;autosize=1;fixedWidth=1;resizable=1;resizeWidth=0;resizeHeight=0;rotatable=1;treeFolding=0;pointerEvents=1;moveCells=0;comic=0;enumerateValue=123;allowArrows=0;fontFamily=Helvetica;fontSize=13;fillColor=#dae8fc;strokeColor=#6c8ebf;" parent="1" vertex="1">
            <mxGeometry x="3850" y="40" width="350" height="218" as="geometry">
              <mxRectangle x="-950" y="80" width="350" height="70" as="alternateBounds" />
            </mxGeometry>
          </mxCell>
        </object>
        <object label="%fieldModify% %fieldName%: %fieldType%    #%fieldDesc%" placeholders="1" shapeType="FIELD" fieldName="id" fieldType="Long" fieldModify="-" fieldDesc="主键" id="V6pODOWmsTAUxBGXdX_y-60">
          <mxCell style="text;strokeColor=none;fillColor=none;align=left;verticalAlign=top;spacingLeft=4;spacingRight=4;overflow=hidden;rotatable=0;points=[];portConstraint=none;metaEdit=1;cloneable=1;rotation=0;connectable=1;container=0;dropTarget=1;imageAspect=1;absoluteArcSize=0;portConstraintRotation=0;snapToPoint=0;fixDash=0;pointerEvents=0;enumerate=0;resizeHeight=1;resizeWidth=1;autosize=1;part=1;movable=1;rounded=0;fontFamily=Helvetica;fontSize=13;fontColor=default;comic=1;" parent="V6pODOWmsTAUxBGXdX_y-59" vertex="1">
            <mxGeometry y="60" width="350" height="24" as="geometry" />
          </mxCell>
        </object>
        <object label="%fieldModify% %fieldName%: %fieldType%    #%fieldDesc%" placeholders="1" shapeType="FIELD" fieldName="memberTypeList" fieldType="List&lt;MemberType&gt;" fieldModify="-" fieldDesc="成员类型（1-产品经理，2-架构师， 3-开发者）" id="078rd7bjTkosUVpx9Eoj-1">
          <mxCell style="text;strokeColor=none;fillColor=none;align=left;verticalAlign=top;spacingLeft=4;spacingRight=4;overflow=hidden;rotatable=0;points=[];portConstraint=none;metaEdit=1;cloneable=1;rotation=0;connectable=1;container=0;dropTarget=1;imageAspect=1;absoluteArcSize=0;portConstraintRotation=0;snapToPoint=0;fixDash=0;pointerEvents=0;enumerate=0;resizeHeight=1;resizeWidth=1;autosize=1;part=1;movable=1;rounded=0;fontFamily=Helvetica;fontSize=13;fontColor=default;comic=1;" parent="V6pODOWmsTAUxBGXdX_y-59" vertex="1">
            <mxGeometry y="84" width="350" height="24" as="geometry" />
          </mxCell>
        </object>
        <object label="《%shapeType%》" placeholders="1" shapeType="RULE_LIST" id="V6pODOWmsTAUxBGXdX_y-61">
          <mxCell style="swimlane;fontStyle=1;align=center;verticalAlign=top;childLayout=stackLayout;horizontal=1;startSize=28;horizontalStack=0;resizeParent=1;resizeParentMax=0;resizeLast=0;collapsible=1;marginBottom=0;fixDash=1;container=1;enumerate=0;treeMoving=1;swimlaneBody=1;fillOpacity=100;strokeOpacity=100;overflow=visible;rounded=0;swimlaneLine=1;sketch=0;shadow=0;arcSize=19;strokeWidth=1;fillStyle=auto;swimlaneFillColor=none;metaEdit=1;labelPadding=0;cloneable=1;separatorColor=none;swimlaneHead=1;noLabel=0;direction=east;portConstraint=none;portConstraintRotation=0;rotation=0;connectable=0;snapToPoint=0;perimeter=rectanglePerimeter;dropTarget=1;expand=1;part=1;backgroundOutline=1;movableLabel=1;autosize=1;fixedWidth=0;resizable=1;resizeWidth=0;resizeHeight=0;rotatable=1;treeFolding=0;pointerEvents=1;moveCells=0;comic=0;enumerateValue=123;allowArrows=0;fontFamily=Helvetica;fontSize=13;glass=0;editable=1;movable=1;deletable=1;fillColor=none;strokeColor=#b85450;gradientColor=none;" parent="V6pODOWmsTAUxBGXdX_y-59" vertex="1">
            <mxGeometry y="108" width="350" height="58" as="geometry">
              <mxRectangle y="256" width="420" height="50" as="alternateBounds" />
            </mxGeometry>
          </mxCell>
        </object>
        <object label="《%shapeType%》" placeholders="1" shapeType="EVENT" id="V6pODOWmsTAUxBGXdX_y-62">
          <mxCell style="swimlane;fontStyle=1;align=center;verticalAlign=top;childLayout=stackLayout;horizontal=1;startSize=28;horizontalStack=0;resizeParent=1;resizeParentMax=0;resizeLast=0;collapsible=1;marginBottom=0;fixDash=1;container=1;enumerate=0;treeMoving=1;swimlaneBody=1;fillOpacity=100;strokeOpacity=100;overflow=visible;rounded=0;swimlaneLine=1;sketch=0;shadow=0;arcSize=19;strokeWidth=1;fillStyle=auto;swimlaneFillColor=none;metaEdit=1;labelPadding=0;cloneable=1;separatorColor=none;swimlaneHead=1;noLabel=0;direction=east;portConstraint=none;portConstraintRotation=0;rotation=0;connectable=0;snapToPoint=0;perimeter=rectanglePerimeter;dropTarget=1;expand=1;part=1;backgroundOutline=1;movableLabel=1;autosize=1;fixedWidth=0;resizable=1;resizeWidth=0;resizeHeight=0;rotatable=1;treeFolding=0;pointerEvents=1;moveCells=0;comic=0;enumerateValue=123;allowArrows=0;fontFamily=Helvetica;fontSize=13;glass=0;editable=1;movable=1;deletable=1;fillColor=none;strokeColor=#6c8ebf;gradientColor=#7ea6e0;" parent="V6pODOWmsTAUxBGXdX_y-59" vertex="1">
            <mxGeometry y="166" width="350" height="52" as="geometry">
              <mxRectangle y="204" width="420" height="50" as="alternateBounds" />
            </mxGeometry>
          </mxCell>
        </object>
        <object label="%nodeDesc%" placeholders="1" nodeDesc="删除团队成员" shapeType="NODE" id="8scukbuJ-bjicZgylgAo-11">
          <mxCell style="rounded=0;whiteSpace=wrap;html=1;shadow=0;glass=0;sketch=0;fillStyle=auto;strokeWidth=1;metaEdit=1;resizable=1;rotatable=0;snapToPoint=0;connectable=1;absoluteArcSize=0;noLabel=0;labelPadding=0;allowArrows=1;recursiveResize=1;expand=1;editable=1;movable=1;deletable=1;fixDash=0;collapsible=0;portConstraintRotation=0;points=[[0,0.5,0,0,0],[1,0.5,0,0,0]];backgroundOutline=0;resizeHeight=1;resizeWidth=1;" parent="1" vertex="1">
            <mxGeometry x="3167.5" y="-50" width="135" height="40" as="geometry" />
          </mxCell>
        </object>
        <object label="《%shapeType%》&#xa;%className%&#xa;%classDesc%" placeholders="1" shapeType="COMMAND" classPackage="memberRemove" classDesc="删除团队成员" className="TeamMemberRemove" cmdType="DELETE" id="8scukbuJ-bjicZgylgAo-12">
          <mxCell style="swimlane;fontStyle=1;align=center;verticalAlign=top;childLayout=stackLayout;horizontal=1;startSize=60;horizontalStack=0;resizeParent=1;resizeParentMax=0;resizeLast=0;collapsible=1;marginBottom=0;fixDash=1;container=1;enumerate=0;treeMoving=1;swimlaneBody=1;fillOpacity=100;strokeOpacity=100;overflow=visible;rounded=0;swimlaneLine=1;sketch=0;shadow=0;arcSize=9;strokeWidth=1;fillStyle=auto;swimlaneFillColor=default;metaEdit=1;labelPadding=0;cloneable=1;separatorColor=none;swimlaneHead=1;noLabel=0;direction=east;portConstraint=none;portConstraintRotation=0;rotation=0;connectable=0;snapToPoint=0;perimeter=rectanglePerimeter;dropTarget=1;expand=1;part=1;backgroundOutline=1;movableLabel=1;autosize=1;fixedWidth=1;resizable=1;resizeWidth=0;resizeHeight=0;rotatable=1;treeFolding=0;pointerEvents=1;moveCells=0;comic=0;enumerateValue=123;allowArrows=0;fontFamily=Helvetica;fontSize=13;fillColor=#dae8fc;strokeColor=#6c8ebf;" parent="1" vertex="1">
            <mxGeometry x="3060" y="40" width="350" height="194" as="geometry">
              <mxRectangle x="-950" y="80" width="350" height="70" as="alternateBounds" />
            </mxGeometry>
          </mxCell>
        </object>
        <object label="%fieldModify% %fieldName%: %fieldType%    #%fieldDesc%" placeholders="1" shapeType="FIELD" fieldName="id" fieldType="Long" fieldModify="-" fieldDesc="主键" id="8scukbuJ-bjicZgylgAo-13">
          <mxCell style="text;strokeColor=none;fillColor=none;align=left;verticalAlign=top;spacingLeft=4;spacingRight=4;overflow=hidden;rotatable=0;points=[];portConstraint=none;metaEdit=1;cloneable=1;rotation=0;connectable=1;container=0;dropTarget=1;imageAspect=1;absoluteArcSize=0;portConstraintRotation=0;snapToPoint=0;fixDash=0;pointerEvents=0;enumerate=0;resizeHeight=1;resizeWidth=1;autosize=1;part=1;movable=1;rounded=0;fontFamily=Helvetica;fontSize=13;fontColor=default;comic=1;" parent="8scukbuJ-bjicZgylgAo-12" vertex="1">
            <mxGeometry y="60" width="350" height="24" as="geometry" />
          </mxCell>
        </object>
        <object label="《%shapeType%》" placeholders="1" shapeType="RULE_LIST" id="8scukbuJ-bjicZgylgAo-14">
          <mxCell style="swimlane;fontStyle=1;align=center;verticalAlign=top;childLayout=stackLayout;horizontal=1;startSize=28;horizontalStack=0;resizeParent=1;resizeParentMax=0;resizeLast=0;collapsible=1;marginBottom=0;fixDash=1;container=1;enumerate=0;treeMoving=1;swimlaneBody=1;fillOpacity=100;strokeOpacity=100;overflow=visible;rounded=0;swimlaneLine=1;sketch=0;shadow=0;arcSize=19;strokeWidth=1;fillStyle=auto;swimlaneFillColor=none;metaEdit=1;labelPadding=0;cloneable=1;separatorColor=none;swimlaneHead=1;noLabel=0;direction=east;portConstraint=none;portConstraintRotation=0;rotation=0;connectable=0;snapToPoint=0;perimeter=rectanglePerimeter;dropTarget=1;expand=1;part=1;backgroundOutline=1;movableLabel=1;autosize=1;fixedWidth=0;resizable=1;resizeWidth=0;resizeHeight=0;rotatable=1;treeFolding=0;pointerEvents=1;moveCells=0;comic=0;enumerateValue=123;allowArrows=0;fontFamily=Helvetica;fontSize=13;glass=0;editable=1;movable=1;deletable=1;fillColor=none;strokeColor=#b85450;gradientColor=none;" parent="8scukbuJ-bjicZgylgAo-12" vertex="1">
            <mxGeometry y="84" width="350" height="58" as="geometry">
              <mxRectangle y="256" width="420" height="50" as="alternateBounds" />
            </mxGeometry>
          </mxCell>
        </object>
        <object label="《%shapeType%》" placeholders="1" shapeType="EVENT" id="8scukbuJ-bjicZgylgAo-15">
          <mxCell style="swimlane;fontStyle=1;align=center;verticalAlign=top;childLayout=stackLayout;horizontal=1;startSize=28;horizontalStack=0;resizeParent=1;resizeParentMax=0;resizeLast=0;collapsible=1;marginBottom=0;fixDash=1;container=1;enumerate=0;treeMoving=1;swimlaneBody=1;fillOpacity=100;strokeOpacity=100;overflow=visible;rounded=0;swimlaneLine=1;sketch=0;shadow=0;arcSize=19;strokeWidth=1;fillStyle=auto;swimlaneFillColor=none;metaEdit=1;labelPadding=0;cloneable=1;separatorColor=none;swimlaneHead=1;noLabel=0;direction=east;portConstraint=none;portConstraintRotation=0;rotation=0;connectable=0;snapToPoint=0;perimeter=rectanglePerimeter;dropTarget=1;expand=1;part=1;backgroundOutline=1;movableLabel=1;autosize=1;fixedWidth=0;resizable=1;resizeWidth=0;resizeHeight=0;rotatable=1;treeFolding=0;pointerEvents=1;moveCells=0;comic=0;enumerateValue=123;allowArrows=0;fontFamily=Helvetica;fontSize=13;glass=0;editable=1;movable=1;deletable=1;fillColor=none;strokeColor=#6c8ebf;gradientColor=#7ea6e0;" parent="8scukbuJ-bjicZgylgAo-12" vertex="1">
            <mxGeometry y="142" width="350" height="52" as="geometry">
              <mxRectangle y="204" width="420" height="50" as="alternateBounds" />
            </mxGeometry>
          </mxCell>
        </object>
        <object label="%nodeDesc%" placeholders="1" nodeDesc="团队管理-查询团队成员信息" shapeType="NODE" id="2hlqjvpKHTUyL70hyvAz-3">
          <mxCell style="rounded=0;whiteSpace=wrap;html=1;shadow=0;glass=0;sketch=0;fillStyle=auto;strokeWidth=1;metaEdit=1;resizable=1;rotatable=0;snapToPoint=0;connectable=1;absoluteArcSize=0;noLabel=0;labelPadding=0;allowArrows=1;recursiveResize=1;expand=1;editable=1;movable=1;deletable=1;fixDash=0;collapsible=0;portConstraintRotation=0;points=[[0,0.5,0,0,0],[1,0.5,0,0,0]];backgroundOutline=0;resizeHeight=1;resizeWidth=1;" parent="1" vertex="1">
            <mxGeometry x="1170" y="670" width="210" height="40" as="geometry" />
          </mxCell>
        </object>
        <object label="《%shapeType%》&#xa;%className%&#xa;%classDesc%&#xa;%queryResultType%" placeholders="1" shapeType="PAGE_QUERY" className="TeamMemberByTeamIdPageQuery" classDesc="查询团队下的成员信息" queryResultType="TeamMemberDTO" id="2hlqjvpKHTUyL70hyvAz-4">
          <mxCell style="swimlane;fontStyle=1;align=center;verticalAlign=top;childLayout=stackLayout;horizontal=1;startSize=80;horizontalStack=0;resizeParent=1;resizeParentMax=0;resizeLast=0;collapsible=1;marginBottom=0;fixDash=1;container=1;enumerate=0;treeMoving=1;swimlaneBody=1;fillOpacity=100;strokeOpacity=100;overflow=visible;rounded=0;swimlaneLine=1;sketch=0;shadow=0;arcSize=3;strokeWidth=1;fillStyle=auto;swimlaneFillColor=none;metaEdit=1;labelPadding=0;cloneable=1;separatorColor=none;swimlaneHead=1;noLabel=0;direction=east;portConstraint=none;portConstraintRotation=0;rotation=0;connectable=1;snapToPoint=0;perimeter=rectanglePerimeter;dropTarget=1;expand=1;part=1;backgroundOutline=1;movableLabel=1;autosize=1;fixedWidth=0;resizable=1;resizeWidth=0;resizeHeight=0;rotatable=1;treeFolding=0;pointerEvents=1;moveCells=0;comic=0;enumerateValue=123;allowArrows=0;fontFamily=Helvetica;fontSize=13;fillColor=#dae8fc;strokeColor=#6c8ebf;" parent="1" vertex="1">
            <mxGeometry x="1130" y="740" width="317.24999999999955" height="104" as="geometry">
              <mxRectangle y="28" width="250" height="50" as="alternateBounds" />
            </mxGeometry>
          </mxCell>
        </object>
        <object label="%fieldModify% %fieldName%: %fieldType%    #%fieldDesc%" placeholders="1" shapeType="FIELD" fieldName="teamId" fieldType="Long" fieldModify="-" fieldDesc="团队ID" id="2hlqjvpKHTUyL70hyvAz-6">
          <mxCell style="text;strokeColor=none;fillColor=none;align=left;verticalAlign=top;spacingLeft=4;spacingRight=4;overflow=hidden;rotatable=0;points=[];portConstraint=none;metaEdit=1;cloneable=1;rotation=0;connectable=1;container=0;dropTarget=1;imageAspect=1;absoluteArcSize=0;portConstraintRotation=0;snapToPoint=0;fixDash=0;pointerEvents=0;enumerate=0;resizeHeight=1;resizeWidth=1;autosize=1;part=1;movable=1;rounded=0;fontFamily=Helvetica;fontSize=13;fontColor=default;comic=1;" parent="2hlqjvpKHTUyL70hyvAz-4" vertex="1">
            <mxGeometry y="80" width="317.24999999999955" height="24" as="geometry" />
          </mxCell>
        </object>
        <object label="《%shapeType%》&#xa;%className%&#xa;%classDesc%" placeholders="1" shapeType="QUERY_RESULT" className="TeamMemberDTO" classDesc="团队成员信息" id="2hlqjvpKHTUyL70hyvAz-7">
          <mxCell style="swimlane;fontStyle=3;align=center;verticalAlign=top;childLayout=stackLayout;horizontal=1;startSize=55;horizontalStack=0;resizeParent=1;resizeParentMax=0;resizeLast=0;collapsible=1;marginBottom=0;fixDash=1;container=1;enumerate=0;treeMoving=1;swimlaneBody=1;fillOpacity=100;strokeOpacity=100;overflow=visible;rounded=1;swimlaneLine=1;sketch=0;shadow=0;arcSize=7;fillColor=#dae8fc;strokeColor=#6c8ebf;strokeWidth=1;fillStyle=auto;swimlaneFillColor=default;metaEdit=1;labelPadding=0;cloneable=1;separatorColor=none;swimlaneHead=1;noLabel=0;direction=east;portConstraint=none;portConstraintRotation=0;rotation=0;connectable=1;snapToPoint=0;perimeter=rectanglePerimeter;dropTarget=1;expand=1;part=1;backgroundOutline=1;movableLabel=1;autosize=1;fixedWidth=0;resizable=1;resizeWidth=0;resizeHeight=0;rotatable=1;treeFolding=0;pointerEvents=1;moveCells=0;comic=0;enumerateValue=123;allowArrows=0;glass=0;fontFamily=Helvetica;fontSize=13;" parent="1" vertex="1">
            <mxGeometry x="1127" y="930" width="343" height="135" as="geometry">
              <mxRectangle x="70" y="410" width="250" height="50" as="alternateBounds" />
            </mxGeometry>
          </mxCell>
        </object>
        <object label="%fieldModify% %fieldName%: %fieldType%    #%fieldDesc%" placeholders="1" shapeType="FIELD" fieldName="id" fieldType="Long" fieldModify="-" fieldDesc="主键" id="2hlqjvpKHTUyL70hyvAz-12">
          <mxCell style="text;strokeColor=none;fillColor=none;align=left;verticalAlign=top;spacingLeft=4;spacingRight=4;overflow=hidden;rotatable=0;points=[];portConstraint=none;metaEdit=1;cloneable=1;rotation=0;connectable=1;container=0;dropTarget=1;imageAspect=1;absoluteArcSize=0;portConstraintRotation=0;snapToPoint=0;fixDash=0;pointerEvents=0;enumerate=0;resizeHeight=1;resizeWidth=1;autosize=1;part=1;movable=1;rounded=0;fontFamily=Helvetica;fontSize=13;fontColor=default;comic=1;" parent="2hlqjvpKHTUyL70hyvAz-7" vertex="1">
            <mxGeometry y="55" width="343" height="24" as="geometry" />
          </mxCell>
        </object>
        <object label="%fieldModify% %fieldName%: %fieldType%    #%fieldDesc%" placeholders="1" shapeType="FIELD" fieldName="accountId" fieldType="Long" fieldModify="-" fieldDesc="成员账号ID" id="2hlqjvpKHTUyL70hyvAz-9">
          <mxCell style="text;strokeColor=none;fillColor=none;align=left;verticalAlign=top;spacingLeft=4;spacingRight=4;overflow=hidden;rotatable=0;points=[];portConstraint=none;metaEdit=1;cloneable=1;rotation=0;connectable=1;container=0;dropTarget=1;imageAspect=1;absoluteArcSize=0;portConstraintRotation=0;snapToPoint=0;fixDash=0;pointerEvents=0;enumerate=0;resizeHeight=1;resizeWidth=1;autosize=1;part=1;movable=1;rounded=0;fontFamily=Helvetica;fontSize=13;fontColor=default;comic=1;" parent="2hlqjvpKHTUyL70hyvAz-7" vertex="1">
            <mxGeometry y="79" width="343" height="24" as="geometry" />
          </mxCell>
        </object>
        <object label="%fieldModify% %fieldName%: %fieldType%    #%fieldDesc%" placeholders="1" shapeType="FIELD" fieldName="memberTypeList" fieldType="List&lt;MemberType&gt;" fieldModify="-" fieldDesc="成员类型（1-产品经理，2-架构师， 3-开发者）" id="078rd7bjTkosUVpx9Eoj-3">
          <mxCell style="text;strokeColor=none;fillColor=none;align=left;verticalAlign=top;spacingLeft=4;spacingRight=4;overflow=hidden;rotatable=0;points=[];portConstraint=none;metaEdit=1;cloneable=1;rotation=0;connectable=1;container=0;dropTarget=1;imageAspect=1;absoluteArcSize=0;portConstraintRotation=0;snapToPoint=0;fixDash=0;pointerEvents=0;enumerate=0;resizeHeight=1;resizeWidth=1;autosize=1;part=1;movable=1;rounded=0;fontFamily=Helvetica;fontSize=13;fontColor=default;comic=1;" parent="2hlqjvpKHTUyL70hyvAz-7" vertex="1">
            <mxGeometry y="103" width="343" height="24" as="geometry" />
          </mxCell>
        </object>
        <mxCell id="2hlqjvpKHTUyL70hyvAz-11" value="" style="line;strokeWidth=1;fillColor=none;align=left;verticalAlign=middle;spacingTop=-1;spacingLeft=3;spacingRight=3;rotatable=0;labelPosition=right;points=[];portConstraint=eastwest;cloneable=1;rounded=0;part=1;fontFamily=Helvetica;fontSize=13;fontColor=default;" parent="2hlqjvpKHTUyL70hyvAz-7" vertex="1">
          <mxGeometry y="127" width="343" height="8" as="geometry" />
        </mxCell>
        <object label="%nodeDesc%" placeholders="1" nodeDesc="绑定组织管理员" shapeType="NODE" id="2hlqjvpKHTUyL70hyvAz-13">
          <mxCell style="rounded=0;whiteSpace=wrap;html=1;shadow=0;glass=0;sketch=0;fillStyle=auto;strokeWidth=1;metaEdit=1;resizable=1;rotatable=0;snapToPoint=0;connectable=1;absoluteArcSize=0;noLabel=0;labelPadding=0;allowArrows=1;recursiveResize=1;expand=1;editable=1;movable=1;deletable=1;fixDash=0;collapsible=0;portConstraintRotation=0;points=[[0,0.5,0,0,0],[1,0.5,0,0,0]];backgroundOutline=0;resizeHeight=1;resizeWidth=1;" parent="1" vertex="1">
            <mxGeometry x="57.5" y="-50" width="135" height="40" as="geometry" />
          </mxCell>
        </object>
        <object label="《%shapeType%》&#xa;%className%&#xa;%classDesc%" placeholders="1" shapeType="COMMAND" classPackage="managerBind" classDesc="绑定组织管理员" className="OrganizationManagerBind" cmdType="UPDATE" id="2hlqjvpKHTUyL70hyvAz-14">
          <mxCell style="swimlane;fontStyle=1;align=center;verticalAlign=top;childLayout=stackLayout;horizontal=1;startSize=60;horizontalStack=0;resizeParent=1;resizeParentMax=0;resizeLast=0;collapsible=1;marginBottom=0;fixDash=1;container=1;enumerate=0;treeMoving=1;swimlaneBody=1;fillOpacity=100;strokeOpacity=100;overflow=visible;rounded=0;swimlaneLine=1;sketch=0;shadow=0;arcSize=9;strokeWidth=1;fillStyle=auto;swimlaneFillColor=default;metaEdit=1;labelPadding=0;cloneable=1;separatorColor=none;swimlaneHead=1;noLabel=0;direction=east;portConstraint=none;portConstraintRotation=0;rotation=0;connectable=0;snapToPoint=0;perimeter=rectanglePerimeter;dropTarget=1;expand=1;part=1;backgroundOutline=1;movableLabel=1;autosize=1;fixedWidth=1;resizable=1;resizeWidth=0;resizeHeight=0;rotatable=1;treeFolding=0;pointerEvents=1;moveCells=0;comic=0;enumerateValue=123;allowArrows=0;fontFamily=Helvetica;fontSize=13;fillColor=#d5e8d4;strokeColor=#82b366;" parent="1" vertex="1">
            <mxGeometry x="-50" y="40" width="350" height="218" as="geometry">
              <mxRectangle x="-950" y="80" width="350" height="70" as="alternateBounds" />
            </mxGeometry>
          </mxCell>
        </object>
        <object label="%fieldModify% %fieldName%: %fieldType%    #%fieldDesc%" placeholders="1" shapeType="FIELD" fieldName="id" fieldType="Long" fieldModify="-" fieldDesc="主键" id="2hlqjvpKHTUyL70hyvAz-15">
          <mxCell style="text;strokeColor=none;fillColor=none;align=left;verticalAlign=top;spacingLeft=4;spacingRight=4;overflow=hidden;rotatable=0;points=[];portConstraint=none;metaEdit=1;cloneable=1;rotation=0;connectable=1;container=0;dropTarget=1;imageAspect=1;absoluteArcSize=0;portConstraintRotation=0;snapToPoint=0;fixDash=0;pointerEvents=0;enumerate=0;resizeHeight=1;resizeWidth=1;autosize=1;part=1;movable=1;rounded=0;fontFamily=Helvetica;fontSize=13;fontColor=default;comic=1;" parent="2hlqjvpKHTUyL70hyvAz-14" vertex="1">
            <mxGeometry y="60" width="350" height="24" as="geometry" />
          </mxCell>
        </object>
        <object label="%fieldModify% %fieldName%: %fieldType%    #%fieldDesc%" placeholders="1" shapeType="FIELD" fieldName="organizationManagerId" fieldType="Long" fieldModify="-" fieldDesc="组织管理员ID" id="2hlqjvpKHTUyL70hyvAz-21">
          <mxCell style="text;strokeColor=none;fillColor=none;align=left;verticalAlign=top;spacingLeft=4;spacingRight=4;overflow=hidden;rotatable=0;points=[];portConstraint=none;metaEdit=1;cloneable=1;rotation=0;connectable=1;container=0;dropTarget=1;imageAspect=1;absoluteArcSize=0;portConstraintRotation=0;snapToPoint=0;fixDash=0;pointerEvents=0;enumerate=0;resizeHeight=1;resizeWidth=1;autosize=1;part=1;movable=1;rounded=0;fontFamily=Helvetica;fontSize=13;fontColor=default;comic=1;" parent="2hlqjvpKHTUyL70hyvAz-14" vertex="1">
            <mxGeometry y="84" width="350" height="24" as="geometry" />
          </mxCell>
        </object>
        <object label="《%shapeType%》" placeholders="1" shapeType="RULE_LIST" id="2hlqjvpKHTUyL70hyvAz-18">
          <mxCell style="swimlane;fontStyle=1;align=center;verticalAlign=top;childLayout=stackLayout;horizontal=1;startSize=28;horizontalStack=0;resizeParent=1;resizeParentMax=0;resizeLast=0;collapsible=1;marginBottom=0;fixDash=1;container=1;enumerate=0;treeMoving=1;swimlaneBody=1;fillOpacity=100;strokeOpacity=100;overflow=visible;rounded=0;swimlaneLine=1;sketch=0;shadow=0;arcSize=19;strokeWidth=1;fillStyle=auto;swimlaneFillColor=none;metaEdit=1;labelPadding=0;cloneable=1;separatorColor=none;swimlaneHead=1;noLabel=0;direction=east;portConstraint=none;portConstraintRotation=0;rotation=0;connectable=0;snapToPoint=0;perimeter=rectanglePerimeter;dropTarget=1;expand=1;part=1;backgroundOutline=1;movableLabel=1;autosize=1;fixedWidth=0;resizable=1;resizeWidth=0;resizeHeight=0;rotatable=1;treeFolding=0;pointerEvents=1;moveCells=0;comic=0;enumerateValue=123;allowArrows=0;fontFamily=Helvetica;fontSize=13;glass=0;editable=1;movable=1;deletable=1;fillColor=none;strokeColor=#b85450;gradientColor=none;" parent="2hlqjvpKHTUyL70hyvAz-14" vertex="1">
            <mxGeometry y="108" width="350" height="58" as="geometry">
              <mxRectangle y="256" width="420" height="50" as="alternateBounds" />
            </mxGeometry>
          </mxCell>
        </object>
        <object label="《%shapeType%》" placeholders="1" shapeType="EVENT" id="2hlqjvpKHTUyL70hyvAz-20">
          <mxCell style="swimlane;fontStyle=1;align=center;verticalAlign=top;childLayout=stackLayout;horizontal=1;startSize=28;horizontalStack=0;resizeParent=1;resizeParentMax=0;resizeLast=0;collapsible=1;marginBottom=0;fixDash=1;container=1;enumerate=0;treeMoving=1;swimlaneBody=1;fillOpacity=100;strokeOpacity=100;overflow=visible;rounded=0;swimlaneLine=1;sketch=0;shadow=0;arcSize=19;strokeWidth=1;fillStyle=auto;swimlaneFillColor=none;metaEdit=1;labelPadding=0;cloneable=1;separatorColor=none;swimlaneHead=1;noLabel=0;direction=east;portConstraint=none;portConstraintRotation=0;rotation=0;connectable=0;snapToPoint=0;perimeter=rectanglePerimeter;dropTarget=1;expand=1;part=1;backgroundOutline=1;movableLabel=1;autosize=1;fixedWidth=0;resizable=1;resizeWidth=0;resizeHeight=0;rotatable=1;treeFolding=0;pointerEvents=1;moveCells=0;comic=0;enumerateValue=123;allowArrows=0;fontFamily=Helvetica;fontSize=13;glass=0;editable=1;movable=1;deletable=1;fillColor=none;strokeColor=#6c8ebf;gradientColor=#7ea6e0;" parent="2hlqjvpKHTUyL70hyvAz-14" vertex="1">
            <mxGeometry y="166" width="350" height="52" as="geometry">
              <mxRectangle y="204" width="420" height="50" as="alternateBounds" />
            </mxGeometry>
          </mxCell>
        </object>
        <object label="%nodeDesc%" placeholders="1" nodeDesc="解绑组织管理员" shapeType="NODE" id="2hlqjvpKHTUyL70hyvAz-22">
          <mxCell style="rounded=0;whiteSpace=wrap;html=1;shadow=0;glass=0;sketch=0;fillStyle=auto;strokeWidth=1;metaEdit=1;resizable=1;rotatable=0;snapToPoint=0;connectable=1;absoluteArcSize=0;noLabel=0;labelPadding=0;allowArrows=1;recursiveResize=1;expand=1;editable=1;movable=1;deletable=1;fixDash=0;collapsible=0;portConstraintRotation=0;points=[[0,0.5,0,0,0],[1,0.5,0,0,0]];backgroundOutline=0;resizeHeight=1;resizeWidth=1;" parent="1" vertex="1">
            <mxGeometry x="427.5" y="-50" width="135" height="40" as="geometry" />
          </mxCell>
        </object>
        <object label="《%shapeType%》&#xa;%className%&#xa;%classDesc%" placeholders="1" shapeType="COMMAND" classPackage="managerUnbind" classDesc="解绑组织管理员" className="OrganizationManagerUnbind" cmdType="UPDATE" id="2hlqjvpKHTUyL70hyvAz-23">
          <mxCell style="swimlane;fontStyle=1;align=center;verticalAlign=top;childLayout=stackLayout;horizontal=1;startSize=60;horizontalStack=0;resizeParent=1;resizeParentMax=0;resizeLast=0;collapsible=1;marginBottom=0;fixDash=1;container=1;enumerate=0;treeMoving=1;swimlaneBody=1;fillOpacity=100;strokeOpacity=100;overflow=visible;rounded=0;swimlaneLine=1;sketch=0;shadow=0;arcSize=9;strokeWidth=1;fillStyle=auto;swimlaneFillColor=default;metaEdit=1;labelPadding=0;cloneable=1;separatorColor=none;swimlaneHead=1;noLabel=0;direction=east;portConstraint=none;portConstraintRotation=0;rotation=0;connectable=0;snapToPoint=0;perimeter=rectanglePerimeter;dropTarget=1;expand=1;part=1;backgroundOutline=1;movableLabel=1;autosize=1;fixedWidth=1;resizable=1;resizeWidth=0;resizeHeight=0;rotatable=1;treeFolding=0;pointerEvents=1;moveCells=0;comic=0;enumerateValue=123;allowArrows=0;fontFamily=Helvetica;fontSize=13;fillColor=#d5e8d4;strokeColor=#82b366;" parent="1" vertex="1">
            <mxGeometry x="320" y="40" width="350" height="194" as="geometry">
              <mxRectangle x="-950" y="80" width="350" height="70" as="alternateBounds" />
            </mxGeometry>
          </mxCell>
        </object>
        <object label="%fieldModify% %fieldName%: %fieldType%    #%fieldDesc%" placeholders="1" shapeType="FIELD" fieldName="id" fieldType="Long" fieldModify="-" fieldDesc="主键" id="2hlqjvpKHTUyL70hyvAz-24">
          <mxCell style="text;strokeColor=none;fillColor=none;align=left;verticalAlign=top;spacingLeft=4;spacingRight=4;overflow=hidden;rotatable=0;points=[];portConstraint=none;metaEdit=1;cloneable=1;rotation=0;connectable=1;container=0;dropTarget=1;imageAspect=1;absoluteArcSize=0;portConstraintRotation=0;snapToPoint=0;fixDash=0;pointerEvents=0;enumerate=0;resizeHeight=1;resizeWidth=1;autosize=1;part=1;movable=1;rounded=0;fontFamily=Helvetica;fontSize=13;fontColor=default;comic=1;" parent="2hlqjvpKHTUyL70hyvAz-23" vertex="1">
            <mxGeometry y="60" width="350" height="24" as="geometry" />
          </mxCell>
        </object>
        <object label="《%shapeType%》" placeholders="1" shapeType="RULE_LIST" id="2hlqjvpKHTUyL70hyvAz-26">
          <mxCell style="swimlane;fontStyle=1;align=center;verticalAlign=top;childLayout=stackLayout;horizontal=1;startSize=28;horizontalStack=0;resizeParent=1;resizeParentMax=0;resizeLast=0;collapsible=1;marginBottom=0;fixDash=1;container=1;enumerate=0;treeMoving=1;swimlaneBody=1;fillOpacity=100;strokeOpacity=100;overflow=visible;rounded=0;swimlaneLine=1;sketch=0;shadow=0;arcSize=19;strokeWidth=1;fillStyle=auto;swimlaneFillColor=none;metaEdit=1;labelPadding=0;cloneable=1;separatorColor=none;swimlaneHead=1;noLabel=0;direction=east;portConstraint=none;portConstraintRotation=0;rotation=0;connectable=0;snapToPoint=0;perimeter=rectanglePerimeter;dropTarget=1;expand=1;part=1;backgroundOutline=1;movableLabel=1;autosize=1;fixedWidth=0;resizable=1;resizeWidth=0;resizeHeight=0;rotatable=1;treeFolding=0;pointerEvents=1;moveCells=0;comic=0;enumerateValue=123;allowArrows=0;fontFamily=Helvetica;fontSize=13;glass=0;editable=1;movable=1;deletable=1;fillColor=none;strokeColor=#b85450;gradientColor=none;" parent="2hlqjvpKHTUyL70hyvAz-23" vertex="1">
            <mxGeometry y="84" width="350" height="58" as="geometry">
              <mxRectangle y="256" width="420" height="50" as="alternateBounds" />
            </mxGeometry>
          </mxCell>
        </object>
        <object label="《%shapeType%》" placeholders="1" shapeType="EVENT" id="2hlqjvpKHTUyL70hyvAz-27">
          <mxCell style="swimlane;fontStyle=1;align=center;verticalAlign=top;childLayout=stackLayout;horizontal=1;startSize=28;horizontalStack=0;resizeParent=1;resizeParentMax=0;resizeLast=0;collapsible=1;marginBottom=0;fixDash=1;container=1;enumerate=0;treeMoving=1;swimlaneBody=1;fillOpacity=100;strokeOpacity=100;overflow=visible;rounded=0;swimlaneLine=1;sketch=0;shadow=0;arcSize=19;strokeWidth=1;fillStyle=auto;swimlaneFillColor=none;metaEdit=1;labelPadding=0;cloneable=1;separatorColor=none;swimlaneHead=1;noLabel=0;direction=east;portConstraint=none;portConstraintRotation=0;rotation=0;connectable=0;snapToPoint=0;perimeter=rectanglePerimeter;dropTarget=1;expand=1;part=1;backgroundOutline=1;movableLabel=1;autosize=1;fixedWidth=0;resizable=1;resizeWidth=0;resizeHeight=0;rotatable=1;treeFolding=0;pointerEvents=1;moveCells=0;comic=0;enumerateValue=123;allowArrows=0;fontFamily=Helvetica;fontSize=13;glass=0;editable=1;movable=1;deletable=1;fillColor=none;strokeColor=#6c8ebf;gradientColor=#7ea6e0;" parent="2hlqjvpKHTUyL70hyvAz-23" vertex="1">
            <mxGeometry y="142" width="350" height="52" as="geometry">
              <mxRectangle y="204" width="420" height="50" as="alternateBounds" />
            </mxGeometry>
          </mxCell>
        </object>
        <object label="%nodeDesc%" placeholders="1" nodeDesc="绑定团队管理员" shapeType="NODE" id="2hlqjvpKHTUyL70hyvAz-28">
          <mxCell style="rounded=0;whiteSpace=wrap;html=1;shadow=0;glass=0;sketch=0;fillStyle=auto;strokeWidth=1;metaEdit=1;resizable=1;rotatable=0;snapToPoint=0;connectable=1;absoluteArcSize=0;noLabel=0;labelPadding=0;allowArrows=1;recursiveResize=1;expand=1;editable=1;movable=1;deletable=1;fixDash=0;collapsible=0;portConstraintRotation=0;points=[[0,0.5,0,0,0],[1,0.5,0,0,0]];backgroundOutline=0;resizeHeight=1;resizeWidth=1;" parent="1" vertex="1">
            <mxGeometry x="1997.5" y="-50" width="135" height="40" as="geometry" />
          </mxCell>
        </object>
        <object label="《%shapeType%》&#xa;%className%&#xa;%classDesc%" placeholders="1" shapeType="COMMAND" classPackage="managerBind" classDesc="绑定团队管理员" className="TeamManagerBind" cmdType="UPDATE" id="2hlqjvpKHTUyL70hyvAz-29">
          <mxCell style="swimlane;fontStyle=1;align=center;verticalAlign=top;childLayout=stackLayout;horizontal=1;startSize=60;horizontalStack=0;resizeParent=1;resizeParentMax=0;resizeLast=0;collapsible=1;marginBottom=0;fixDash=1;container=1;enumerate=0;treeMoving=1;swimlaneBody=1;fillOpacity=100;strokeOpacity=100;overflow=visible;rounded=0;swimlaneLine=1;sketch=0;shadow=0;arcSize=9;strokeWidth=1;fillStyle=auto;swimlaneFillColor=default;metaEdit=1;labelPadding=0;cloneable=1;separatorColor=none;swimlaneHead=1;noLabel=0;direction=east;portConstraint=none;portConstraintRotation=0;rotation=0;connectable=0;snapToPoint=0;perimeter=rectanglePerimeter;dropTarget=1;expand=1;part=1;backgroundOutline=1;movableLabel=1;autosize=1;fixedWidth=1;resizable=1;resizeWidth=0;resizeHeight=0;rotatable=1;treeFolding=0;pointerEvents=1;moveCells=0;comic=0;enumerateValue=123;allowArrows=0;fontFamily=Helvetica;fontSize=13;fillColor=#fff2cc;strokeColor=#d6b656;" parent="1" vertex="1">
            <mxGeometry x="1890" y="40" width="350" height="218" as="geometry">
              <mxRectangle x="-950" y="80" width="350" height="70" as="alternateBounds" />
            </mxGeometry>
          </mxCell>
        </object>
        <object label="%fieldModify% %fieldName%: %fieldType%    #%fieldDesc%" placeholders="1" shapeType="FIELD" fieldName="id" fieldType="Long" fieldModify="-" fieldDesc="主键" id="2hlqjvpKHTUyL70hyvAz-30">
          <mxCell style="text;strokeColor=none;fillColor=none;align=left;verticalAlign=top;spacingLeft=4;spacingRight=4;overflow=hidden;rotatable=0;points=[];portConstraint=none;metaEdit=1;cloneable=1;rotation=0;connectable=1;container=0;dropTarget=1;imageAspect=1;absoluteArcSize=0;portConstraintRotation=0;snapToPoint=0;fixDash=0;pointerEvents=0;enumerate=0;resizeHeight=1;resizeWidth=1;autosize=1;part=1;movable=1;rounded=0;fontFamily=Helvetica;fontSize=13;fontColor=default;comic=1;" parent="2hlqjvpKHTUyL70hyvAz-29" vertex="1">
            <mxGeometry y="60" width="350" height="24" as="geometry" />
          </mxCell>
        </object>
        <object label="%fieldModify% %fieldName%: %fieldType%    #%fieldDesc%" placeholders="1" shapeType="FIELD" fieldName="teamManagerId" fieldType="Long" fieldModify="-" fieldDesc="团队管理员ID" id="2hlqjvpKHTUyL70hyvAz-34">
          <mxCell style="text;strokeColor=none;fillColor=none;align=left;verticalAlign=top;spacingLeft=4;spacingRight=4;overflow=hidden;rotatable=0;points=[];portConstraint=none;metaEdit=1;cloneable=1;rotation=0;connectable=1;container=0;dropTarget=1;imageAspect=1;absoluteArcSize=0;portConstraintRotation=0;snapToPoint=0;fixDash=0;pointerEvents=0;enumerate=0;resizeHeight=1;resizeWidth=1;autosize=1;part=1;movable=1;rounded=0;fontFamily=Helvetica;fontSize=13;fontColor=default;comic=1;" parent="2hlqjvpKHTUyL70hyvAz-29" vertex="1">
            <mxGeometry y="84" width="350" height="24" as="geometry" />
          </mxCell>
        </object>
        <object label="《%shapeType%》" placeholders="1" shapeType="RULE_LIST" id="2hlqjvpKHTUyL70hyvAz-35">
          <mxCell style="swimlane;fontStyle=1;align=center;verticalAlign=top;childLayout=stackLayout;horizontal=1;startSize=28;horizontalStack=0;resizeParent=1;resizeParentMax=0;resizeLast=0;collapsible=1;marginBottom=0;fixDash=1;container=1;enumerate=0;treeMoving=1;swimlaneBody=1;fillOpacity=100;strokeOpacity=100;overflow=visible;rounded=0;swimlaneLine=1;sketch=0;shadow=0;arcSize=19;strokeWidth=1;fillStyle=auto;swimlaneFillColor=none;metaEdit=1;labelPadding=0;cloneable=1;separatorColor=none;swimlaneHead=1;noLabel=0;direction=east;portConstraint=none;portConstraintRotation=0;rotation=0;connectable=0;snapToPoint=0;perimeter=rectanglePerimeter;dropTarget=1;expand=1;part=1;backgroundOutline=1;movableLabel=1;autosize=1;fixedWidth=0;resizable=1;resizeWidth=0;resizeHeight=0;rotatable=1;treeFolding=0;pointerEvents=1;moveCells=0;comic=0;enumerateValue=123;allowArrows=0;fontFamily=Helvetica;fontSize=13;glass=0;editable=1;movable=1;deletable=1;fillColor=none;strokeColor=#b85450;gradientColor=none;" parent="2hlqjvpKHTUyL70hyvAz-29" vertex="1">
            <mxGeometry y="108" width="350" height="58" as="geometry">
              <mxRectangle y="256" width="420" height="50" as="alternateBounds" />
            </mxGeometry>
          </mxCell>
        </object>
        <object label="《%shapeType%》" placeholders="1" shapeType="EVENT" id="2hlqjvpKHTUyL70hyvAz-37">
          <mxCell style="swimlane;fontStyle=1;align=center;verticalAlign=top;childLayout=stackLayout;horizontal=1;startSize=28;horizontalStack=0;resizeParent=1;resizeParentMax=0;resizeLast=0;collapsible=1;marginBottom=0;fixDash=1;container=1;enumerate=0;treeMoving=1;swimlaneBody=1;fillOpacity=100;strokeOpacity=100;overflow=visible;rounded=0;swimlaneLine=1;sketch=0;shadow=0;arcSize=19;strokeWidth=1;fillStyle=auto;swimlaneFillColor=none;metaEdit=1;labelPadding=0;cloneable=1;separatorColor=none;swimlaneHead=1;noLabel=0;direction=east;portConstraint=none;portConstraintRotation=0;rotation=0;connectable=0;snapToPoint=0;perimeter=rectanglePerimeter;dropTarget=1;expand=1;part=1;backgroundOutline=1;movableLabel=1;autosize=1;fixedWidth=0;resizable=1;resizeWidth=0;resizeHeight=0;rotatable=1;treeFolding=0;pointerEvents=1;moveCells=0;comic=0;enumerateValue=123;allowArrows=0;fontFamily=Helvetica;fontSize=13;glass=0;editable=1;movable=1;deletable=1;fillColor=none;strokeColor=#6c8ebf;gradientColor=#7ea6e0;" parent="2hlqjvpKHTUyL70hyvAz-29" vertex="1">
            <mxGeometry y="166" width="350" height="52" as="geometry">
              <mxRectangle y="204" width="420" height="50" as="alternateBounds" />
            </mxGeometry>
          </mxCell>
        </object>
        <object label="%nodeDesc%" placeholders="1" nodeDesc="解绑团队管理员" shapeType="NODE" id="2hlqjvpKHTUyL70hyvAz-48">
          <mxCell style="rounded=0;whiteSpace=wrap;html=1;shadow=0;glass=0;sketch=0;fillStyle=auto;strokeWidth=1;metaEdit=1;resizable=1;rotatable=0;snapToPoint=0;connectable=1;absoluteArcSize=0;noLabel=0;labelPadding=0;allowArrows=1;recursiveResize=1;expand=1;editable=1;movable=1;deletable=1;fixDash=0;collapsible=0;portConstraintRotation=0;points=[[0,0.5,0,0,0],[1,0.5,0,0,0]];backgroundOutline=0;resizeHeight=1;resizeWidth=1;" parent="1" vertex="1">
            <mxGeometry x="2387.5" y="-50" width="135" height="40" as="geometry" />
          </mxCell>
        </object>
        <object label="《%shapeType%》&#xa;%className%&#xa;%classDesc%" placeholders="1" shapeType="COMMAND" classPackage="managerUnbind" classDesc="解绑团队管理员" className="TeamManagerUnbind" cmdType="UPDATE" id="2hlqjvpKHTUyL70hyvAz-49">
          <mxCell style="swimlane;fontStyle=1;align=center;verticalAlign=top;childLayout=stackLayout;horizontal=1;startSize=60;horizontalStack=0;resizeParent=1;resizeParentMax=0;resizeLast=0;collapsible=1;marginBottom=0;fixDash=1;container=1;enumerate=0;treeMoving=1;swimlaneBody=1;fillOpacity=100;strokeOpacity=100;overflow=visible;rounded=0;swimlaneLine=1;sketch=0;shadow=0;arcSize=9;strokeWidth=1;fillStyle=auto;swimlaneFillColor=default;metaEdit=1;labelPadding=0;cloneable=1;separatorColor=none;swimlaneHead=1;noLabel=0;direction=east;portConstraint=none;portConstraintRotation=0;rotation=0;connectable=0;snapToPoint=0;perimeter=rectanglePerimeter;dropTarget=1;expand=1;part=1;backgroundOutline=1;movableLabel=1;autosize=1;fixedWidth=1;resizable=1;resizeWidth=0;resizeHeight=0;rotatable=1;treeFolding=0;pointerEvents=1;moveCells=0;comic=0;enumerateValue=123;allowArrows=0;fontFamily=Helvetica;fontSize=13;fillColor=#fff2cc;strokeColor=#d6b656;" parent="1" vertex="1">
            <mxGeometry x="2280" y="40" width="350" height="194" as="geometry">
              <mxRectangle x="-950" y="80" width="350" height="70" as="alternateBounds" />
            </mxGeometry>
          </mxCell>
        </object>
        <object label="%fieldModify% %fieldName%: %fieldType%    #%fieldDesc%" placeholders="1" shapeType="FIELD" fieldName="id" fieldType="Long" fieldModify="-" fieldDesc="主键" id="2hlqjvpKHTUyL70hyvAz-50">
          <mxCell style="text;strokeColor=none;fillColor=none;align=left;verticalAlign=top;spacingLeft=4;spacingRight=4;overflow=hidden;rotatable=0;points=[];portConstraint=none;metaEdit=1;cloneable=1;rotation=0;connectable=1;container=0;dropTarget=1;imageAspect=1;absoluteArcSize=0;portConstraintRotation=0;snapToPoint=0;fixDash=0;pointerEvents=0;enumerate=0;resizeHeight=1;resizeWidth=1;autosize=1;part=1;movable=1;rounded=0;fontFamily=Helvetica;fontSize=13;fontColor=default;comic=1;" parent="2hlqjvpKHTUyL70hyvAz-49" vertex="1">
            <mxGeometry y="60" width="350" height="24" as="geometry" />
          </mxCell>
        </object>
        <object label="《%shapeType%》" placeholders="1" shapeType="RULE_LIST" id="2hlqjvpKHTUyL70hyvAz-52">
          <mxCell style="swimlane;fontStyle=1;align=center;verticalAlign=top;childLayout=stackLayout;horizontal=1;startSize=28;horizontalStack=0;resizeParent=1;resizeParentMax=0;resizeLast=0;collapsible=1;marginBottom=0;fixDash=1;container=1;enumerate=0;treeMoving=1;swimlaneBody=1;fillOpacity=100;strokeOpacity=100;overflow=visible;rounded=0;swimlaneLine=1;sketch=0;shadow=0;arcSize=19;strokeWidth=1;fillStyle=auto;swimlaneFillColor=none;metaEdit=1;labelPadding=0;cloneable=1;separatorColor=none;swimlaneHead=1;noLabel=0;direction=east;portConstraint=none;portConstraintRotation=0;rotation=0;connectable=0;snapToPoint=0;perimeter=rectanglePerimeter;dropTarget=1;expand=1;part=1;backgroundOutline=1;movableLabel=1;autosize=1;fixedWidth=0;resizable=1;resizeWidth=0;resizeHeight=0;rotatable=1;treeFolding=0;pointerEvents=1;moveCells=0;comic=0;enumerateValue=123;allowArrows=0;fontFamily=Helvetica;fontSize=13;glass=0;editable=1;movable=1;deletable=1;fillColor=none;strokeColor=#b85450;gradientColor=none;" parent="2hlqjvpKHTUyL70hyvAz-49" vertex="1">
            <mxGeometry y="84" width="350" height="58" as="geometry">
              <mxRectangle y="256" width="420" height="50" as="alternateBounds" />
            </mxGeometry>
          </mxCell>
        </object>
        <object label="《%shapeType%》" placeholders="1" shapeType="EVENT" id="2hlqjvpKHTUyL70hyvAz-53">
          <mxCell style="swimlane;fontStyle=1;align=center;verticalAlign=top;childLayout=stackLayout;horizontal=1;startSize=28;horizontalStack=0;resizeParent=1;resizeParentMax=0;resizeLast=0;collapsible=1;marginBottom=0;fixDash=1;container=1;enumerate=0;treeMoving=1;swimlaneBody=1;fillOpacity=100;strokeOpacity=100;overflow=visible;rounded=0;swimlaneLine=1;sketch=0;shadow=0;arcSize=19;strokeWidth=1;fillStyle=auto;swimlaneFillColor=none;metaEdit=1;labelPadding=0;cloneable=1;separatorColor=none;swimlaneHead=1;noLabel=0;direction=east;portConstraint=none;portConstraintRotation=0;rotation=0;connectable=0;snapToPoint=0;perimeter=rectanglePerimeter;dropTarget=1;expand=1;part=1;backgroundOutline=1;movableLabel=1;autosize=1;fixedWidth=0;resizable=1;resizeWidth=0;resizeHeight=0;rotatable=1;treeFolding=0;pointerEvents=1;moveCells=0;comic=0;enumerateValue=123;allowArrows=0;fontFamily=Helvetica;fontSize=13;glass=0;editable=1;movable=1;deletable=1;fillColor=none;strokeColor=#6c8ebf;gradientColor=#7ea6e0;" parent="2hlqjvpKHTUyL70hyvAz-49" vertex="1">
            <mxGeometry y="142" width="350" height="52" as="geometry">
              <mxRectangle y="204" width="420" height="50" as="alternateBounds" />
            </mxGeometry>
          </mxCell>
        </object>
        <object label="《%shapeType%》&#xa;%className%&#xa;%classDesc%" placeholders="1" shapeType="ENUM" className="MemberType" classDesc="成员类型" id="z2-GwxUaWTCVTuCSdPEy-1">
          <mxCell style="swimlane;fontStyle=3;align=center;verticalAlign=top;childLayout=stackLayout;horizontal=1;startSize=55;horizontalStack=0;resizeParent=1;resizeParentMax=0;resizeLast=0;collapsible=1;marginBottom=0;fixDash=1;container=1;enumerate=0;treeMoving=1;swimlaneBody=1;fillOpacity=100;strokeOpacity=100;overflow=visible;rounded=1;swimlaneLine=1;sketch=0;shadow=0;arcSize=6;strokeWidth=1;fillStyle=auto;swimlaneFillColor=default;metaEdit=1;labelPadding=0;cloneable=1;separatorColor=none;swimlaneHead=1;noLabel=0;direction=east;portConstraint=none;portConstraintRotation=0;rotation=0;connectable=1;snapToPoint=0;perimeter=rectanglePerimeter;dropTarget=1;expand=1;part=1;backgroundOutline=1;movableLabel=1;autosize=1;fixedWidth=0;resizable=1;resizeWidth=0;resizeHeight=0;rotatable=1;treeFolding=0;pointerEvents=1;moveCells=0;comic=0;enumerateValue=123;allowArrows=0;glass=0;fontFamily=Helvetica;fontSize=13;fillColor=#dae8fc;strokeColor=#6c8ebf;" parent="1" vertex="1">
            <mxGeometry x="1550" y="390" width="330" height="145" as="geometry">
              <mxRectangle x="70" y="410" width="250" height="50" as="alternateBounds" />
            </mxGeometry>
          </mxCell>
        </object>
        <object label="%constantName% (%constantCode%, &quot;%constantDesc%&quot;)   #%constantNote%" placeholders="1" shapeType="CONSTANT" constantDesc="productManager" constantName="PM" constantCode="1" constantNote="产品经理" id="z2-GwxUaWTCVTuCSdPEy-2">
          <mxCell style="text;strokeColor=none;fillColor=none;align=left;verticalAlign=top;spacingLeft=4;spacingRight=4;overflow=hidden;rotatable=0;points=[];portConstraint=none;metaEdit=1;cloneable=1;rotation=0;connectable=1;container=0;dropTarget=1;imageAspect=1;absoluteArcSize=0;portConstraintRotation=0;snapToPoint=0;fixDash=0;pointerEvents=0;enumerate=0;resizeHeight=1;resizeWidth=1;autosize=1;part=1;movable=1;rounded=0;fontFamily=Helvetica;fontSize=13;fontColor=default;" parent="z2-GwxUaWTCVTuCSdPEy-1" vertex="1">
            <mxGeometry y="55" width="330" height="30" as="geometry" />
          </mxCell>
        </object>
        <object label="%constantName% (%constantCode%, &quot;%constantDesc%&quot;)   #%constantNote%" placeholders="1" shapeType="CONSTANT" constantDesc="architect" constantName="ARCHITECT" constantCode="2" constantNote="架构师" id="z2-GwxUaWTCVTuCSdPEy-3">
          <mxCell style="text;strokeColor=none;fillColor=none;align=left;verticalAlign=top;spacingLeft=4;spacingRight=4;overflow=hidden;rotatable=0;points=[];portConstraint=none;metaEdit=1;cloneable=1;rotation=0;connectable=1;container=0;dropTarget=1;imageAspect=1;absoluteArcSize=0;portConstraintRotation=0;snapToPoint=0;fixDash=0;pointerEvents=0;enumerate=0;resizeHeight=1;resizeWidth=1;autosize=1;part=1;movable=1;rounded=0;fontFamily=Helvetica;fontSize=13;fontColor=default;" parent="z2-GwxUaWTCVTuCSdPEy-1" vertex="1">
            <mxGeometry y="85" width="330" height="30" as="geometry" />
          </mxCell>
        </object>
        <object label="%constantName% (%constantCode%, &quot;%constantDesc%&quot;)   #%constantNote%" placeholders="1" shapeType="CONSTANT" constantDesc="developer" constantName="DEVELOPER" constantCode="3" constantNote="开发者" id="z2-GwxUaWTCVTuCSdPEy-4">
          <mxCell style="text;strokeColor=none;fillColor=none;align=left;verticalAlign=top;spacingLeft=4;spacingRight=4;overflow=hidden;rotatable=0;points=[];portConstraint=none;metaEdit=1;cloneable=1;rotation=0;connectable=1;container=0;dropTarget=1;imageAspect=1;absoluteArcSize=0;portConstraintRotation=0;snapToPoint=0;fixDash=0;pointerEvents=0;enumerate=0;resizeHeight=1;resizeWidth=1;autosize=1;part=1;movable=1;rounded=0;fontFamily=Helvetica;fontSize=13;fontColor=default;" parent="z2-GwxUaWTCVTuCSdPEy-1" vertex="1">
            <mxGeometry y="115" width="330" height="30" as="geometry" />
          </mxCell>
        </object>
      </root>
    </mxGraphModel>
  </diagram>
  <diagram id="36GOk5ZQ6pDdvgRfznkc" name="数据模型">
    <mxGraphModel dx="3407" dy="949" grid="0" gridSize="10" guides="1" tooltips="1" connect="1" arrows="1" fold="1" page="0" pageScale="1" pageWidth="827" pageHeight="1169" math="0" shadow="0">
      <root>
        <mxCell id="0" />
        <mxCell id="1" parent="0" />
        <object label="《%shapeType%》&#xa;%className%&#xa;%classDesc%" placeholders="1" shapeType="TABLE" className="Organization" classDesc="组织" id="7s3UA_DmdeyBPJw6Gox0-1">
          <mxCell style="swimlane;fontStyle=3;align=center;verticalAlign=top;childLayout=stackLayout;horizontal=1;startSize=55;horizontalStack=0;resizeParent=1;resizeParentMax=0;resizeLast=0;collapsible=1;marginBottom=0;fixDash=1;container=1;enumerate=0;treeMoving=1;swimlaneBody=1;fillOpacity=100;strokeOpacity=100;overflow=visible;rounded=1;swimlaneLine=1;sketch=0;shadow=0;arcSize=7;fillColor=#d5e8d4;strokeColor=#82b366;strokeWidth=1;fillStyle=auto;swimlaneFillColor=default;metaEdit=1;labelPadding=0;cloneable=1;separatorColor=none;swimlaneHead=1;noLabel=0;direction=east;portConstraint=none;portConstraintRotation=0;rotation=0;connectable=1;snapToPoint=0;perimeter=rectanglePerimeter;dropTarget=1;expand=1;part=1;backgroundOutline=1;movableLabel=1;autosize=1;fixedWidth=0;resizable=1;resizeWidth=0;resizeHeight=0;rotatable=1;treeFolding=0;pointerEvents=1;moveCells=0;comic=0;enumerateValue=123;allowArrows=0;glass=0;fontFamily=Helvetica;fontSize=13;" vertex="1" parent="1">
            <mxGeometry x="-1345" y="157" width="343" height="159" as="geometry">
              <mxRectangle x="70" y="410" width="250" height="50" as="alternateBounds" />
            </mxGeometry>
          </mxCell>
        </object>
        <object label="%fieldModify% %fieldName%: %fieldType%    #%fieldDesc%" placeholders="1" shapeType="FIELD" fieldName="id" fieldType="Long" fieldModify="-" fieldDesc="主键" id="3DryI7w1mxvqSqRpwAh8-2">
          <mxCell style="text;strokeColor=none;fillColor=none;align=left;verticalAlign=top;spacingLeft=4;spacingRight=4;overflow=hidden;rotatable=0;points=[];portConstraint=none;metaEdit=1;cloneable=1;rotation=0;connectable=1;container=0;dropTarget=1;imageAspect=1;absoluteArcSize=0;portConstraintRotation=0;snapToPoint=0;fixDash=0;pointerEvents=0;enumerate=0;resizeHeight=1;resizeWidth=1;autosize=1;part=1;movable=1;rounded=0;fontFamily=Helvetica;fontSize=13;fontColor=default;comic=1;" vertex="1" parent="7s3UA_DmdeyBPJw6Gox0-1">
            <mxGeometry y="55" width="343" height="24" as="geometry" />
          </mxCell>
        </object>
        <object label="%fieldModify% %fieldName%: %fieldType%    #%fieldDesc%" placeholders="1" shapeType="FIELD" fieldName="organizationManagerId" fieldType="Long" fieldModify="-" fieldDesc="组织管理员ID" id="7s3UA_DmdeyBPJw6Gox0-2">
          <mxCell style="text;strokeColor=none;fillColor=none;align=left;verticalAlign=top;spacingLeft=4;spacingRight=4;overflow=hidden;rotatable=0;points=[];portConstraint=none;metaEdit=1;cloneable=1;rotation=0;connectable=1;container=0;dropTarget=1;imageAspect=1;absoluteArcSize=0;portConstraintRotation=0;snapToPoint=0;fixDash=0;pointerEvents=0;enumerate=0;resizeHeight=1;resizeWidth=1;autosize=1;part=1;movable=1;rounded=0;fontFamily=Helvetica;fontSize=13;fontColor=default;comic=1;" vertex="1" parent="7s3UA_DmdeyBPJw6Gox0-1">
            <mxGeometry y="79" width="343" height="24" as="geometry" />
          </mxCell>
        </object>
        <object label="%fieldModify% %fieldName%: %fieldType%    #%fieldDesc%" placeholders="1" shapeType="FIELD" fieldName="description" fieldType="String" fieldModify="-" fieldDesc="描述信息" id="7s3UA_DmdeyBPJw6Gox0-3">
          <mxCell style="text;strokeColor=none;fillColor=none;align=left;verticalAlign=top;spacingLeft=4;spacingRight=4;overflow=hidden;rotatable=0;points=[];portConstraint=none;metaEdit=1;cloneable=1;rotation=0;connectable=1;container=0;dropTarget=1;imageAspect=1;absoluteArcSize=0;portConstraintRotation=0;snapToPoint=0;fixDash=0;pointerEvents=0;enumerate=0;resizeHeight=1;resizeWidth=1;autosize=1;part=1;movable=1;rounded=0;fontFamily=Helvetica;fontSize=13;fontColor=default;comic=1;" vertex="1" parent="7s3UA_DmdeyBPJw6Gox0-1">
            <mxGeometry y="103" width="343" height="24" as="geometry" />
          </mxCell>
        </object>
        <object label="%fieldModify% %fieldName%: %fieldType%    #%fieldDesc%" placeholders="1" shapeType="FIELD" fieldName="name" fieldType="String" fieldModify="-" fieldDesc="组织名称" id="7s3UA_DmdeyBPJw6Gox0-4">
          <mxCell style="text;strokeColor=none;fillColor=none;align=left;verticalAlign=top;spacingLeft=4;spacingRight=4;overflow=hidden;rotatable=0;points=[];portConstraint=none;metaEdit=1;cloneable=1;rotation=0;connectable=1;container=0;dropTarget=1;imageAspect=1;absoluteArcSize=0;portConstraintRotation=0;snapToPoint=0;fixDash=0;pointerEvents=0;enumerate=0;resizeHeight=1;resizeWidth=1;autosize=1;part=1;movable=1;rounded=0;fontFamily=Helvetica;fontSize=13;fontColor=default;comic=1;" vertex="1" parent="7s3UA_DmdeyBPJw6Gox0-1">
            <mxGeometry y="127" width="343" height="24" as="geometry" />
          </mxCell>
        </object>
        <mxCell id="7s3UA_DmdeyBPJw6Gox0-5" value="" style="line;strokeWidth=1;fillColor=none;align=left;verticalAlign=middle;spacingTop=-1;spacingLeft=3;spacingRight=3;rotatable=0;labelPosition=right;points=[];portConstraint=eastwest;cloneable=1;rounded=0;part=1;fontFamily=Helvetica;fontSize=13;fontColor=default;" vertex="1" parent="7s3UA_DmdeyBPJw6Gox0-1">
          <mxGeometry y="151" width="343" height="8" as="geometry" />
        </mxCell>
        <object label="《%shapeType%》&#xa;%className%&#xa;%classDesc%" placeholders="1" shapeType="TABLE" className="Team" classDesc="团队" id="XSU5xxXujM5Dg4y_78us-1">
          <mxCell style="swimlane;fontStyle=3;align=center;verticalAlign=top;childLayout=stackLayout;horizontal=1;startSize=55;horizontalStack=0;resizeParent=1;resizeParentMax=0;resizeLast=0;collapsible=1;marginBottom=0;fixDash=1;container=1;enumerate=0;treeMoving=1;swimlaneBody=1;fillOpacity=100;strokeOpacity=100;overflow=visible;rounded=1;swimlaneLine=1;sketch=0;shadow=0;arcSize=7;fillColor=#fff2cc;strokeColor=#d6b656;strokeWidth=1;fillStyle=auto;swimlaneFillColor=default;metaEdit=1;labelPadding=0;cloneable=1;separatorColor=none;swimlaneHead=1;noLabel=0;direction=east;portConstraint=none;portConstraintRotation=0;rotation=0;connectable=1;snapToPoint=0;perimeter=rectanglePerimeter;dropTarget=1;expand=1;part=1;backgroundOutline=1;movableLabel=1;autosize=1;fixedWidth=0;resizable=1;resizeWidth=0;resizeHeight=0;rotatable=1;treeFolding=0;pointerEvents=1;moveCells=0;comic=0;enumerateValue=123;allowArrows=0;glass=0;fontFamily=Helvetica;fontSize=13;fontColor=default;" vertex="1" parent="1">
            <mxGeometry x="-1336" y="477" width="343" height="183" as="geometry">
              <mxRectangle x="70" y="410" width="250" height="50" as="alternateBounds" />
            </mxGeometry>
          </mxCell>
        </object>
        <object label="%fieldModify% %fieldName%: %fieldType%    #%fieldDesc%" placeholders="1" shapeType="FIELD" fieldName="id" fieldType="Long" fieldModify="-" fieldDesc="主键" id="3DryI7w1mxvqSqRpwAh8-1">
          <mxCell style="text;strokeColor=none;fillColor=none;align=left;verticalAlign=top;spacingLeft=4;spacingRight=4;overflow=hidden;rotatable=0;points=[];portConstraint=none;metaEdit=1;cloneable=1;rotation=0;connectable=1;container=0;dropTarget=1;imageAspect=1;absoluteArcSize=0;portConstraintRotation=0;snapToPoint=0;fixDash=0;pointerEvents=0;enumerate=0;resizeHeight=1;resizeWidth=1;autosize=1;part=1;movable=1;rounded=0;fontFamily=Helvetica;fontSize=13;fontColor=default;comic=1;" vertex="1" parent="XSU5xxXujM5Dg4y_78us-1">
            <mxGeometry y="55" width="343" height="24" as="geometry" />
          </mxCell>
        </object>
        <object label="%fieldModify% %fieldName%: %fieldType%    #%fieldDesc%" placeholders="1" shapeType="FIELD" fieldName="organizationId" fieldType="Long" fieldModify="-" fieldDesc="所属组织ID" id="XSU5xxXujM5Dg4y_78us-2">
          <mxCell style="text;strokeColor=none;fillColor=none;align=left;verticalAlign=top;spacingLeft=4;spacingRight=4;overflow=hidden;rotatable=0;points=[];portConstraint=none;metaEdit=1;cloneable=1;rotation=0;connectable=1;container=0;dropTarget=1;imageAspect=1;absoluteArcSize=0;portConstraintRotation=0;snapToPoint=0;fixDash=0;pointerEvents=0;enumerate=0;resizeHeight=1;resizeWidth=1;autosize=1;part=1;movable=1;rounded=0;fontFamily=Helvetica;fontSize=13;fontColor=default;comic=1;" vertex="1" parent="XSU5xxXujM5Dg4y_78us-1">
            <mxGeometry y="79" width="343" height="24" as="geometry" />
          </mxCell>
        </object>
        <object label="%fieldModify% %fieldName%: %fieldType%    #%fieldDesc%" placeholders="1" shapeType="FIELD" fieldName="name" fieldType="String" fieldModify="-" fieldDesc="团队名称" id="XSU5xxXujM5Dg4y_78us-3">
          <mxCell style="text;strokeColor=none;fillColor=none;align=left;verticalAlign=top;spacingLeft=4;spacingRight=4;overflow=hidden;rotatable=0;points=[];portConstraint=none;metaEdit=1;cloneable=1;rotation=0;connectable=1;container=0;dropTarget=1;imageAspect=1;absoluteArcSize=0;portConstraintRotation=0;snapToPoint=0;fixDash=0;pointerEvents=0;enumerate=0;resizeHeight=1;resizeWidth=1;autosize=1;part=1;movable=1;rounded=0;fontFamily=Helvetica;fontSize=13;fontColor=default;comic=1;" vertex="1" parent="XSU5xxXujM5Dg4y_78us-1">
            <mxGeometry y="103" width="343" height="24" as="geometry" />
          </mxCell>
        </object>
        <object label="%fieldModify% %fieldName%: %fieldType%    #%fieldDesc%" placeholders="1" shapeType="FIELD" fieldName="teamManagerId" fieldType="Long" fieldModify="-" fieldDesc="团队管理员ID" id="XSU5xxXujM5Dg4y_78us-4">
          <mxCell style="text;strokeColor=none;fillColor=none;align=left;verticalAlign=top;spacingLeft=4;spacingRight=4;overflow=hidden;rotatable=0;points=[];portConstraint=none;metaEdit=1;cloneable=1;rotation=0;connectable=1;container=0;dropTarget=1;imageAspect=1;absoluteArcSize=0;portConstraintRotation=0;snapToPoint=0;fixDash=0;pointerEvents=0;enumerate=0;resizeHeight=1;resizeWidth=1;autosize=1;part=1;movable=1;rounded=0;fontFamily=Helvetica;fontSize=13;fontColor=default;comic=1;" vertex="1" parent="XSU5xxXujM5Dg4y_78us-1">
            <mxGeometry y="127" width="343" height="24" as="geometry" />
          </mxCell>
        </object>
        <object label="%fieldModify% %fieldName%: %fieldType%    #%fieldDesc%" placeholders="1" shapeType="FIELD" fieldName="description" fieldType="String" fieldModify="-" fieldDesc="描述信息" id="XSU5xxXujM5Dg4y_78us-5">
          <mxCell style="text;strokeColor=none;fillColor=none;align=left;verticalAlign=top;spacingLeft=4;spacingRight=4;overflow=hidden;rotatable=0;points=[];portConstraint=none;metaEdit=1;cloneable=1;rotation=0;connectable=1;container=0;dropTarget=1;imageAspect=1;absoluteArcSize=0;portConstraintRotation=0;snapToPoint=0;fixDash=0;pointerEvents=0;enumerate=0;resizeHeight=1;resizeWidth=1;autosize=1;part=1;movable=1;rounded=0;fontFamily=Helvetica;fontSize=13;fontColor=default;comic=1;" vertex="1" parent="XSU5xxXujM5Dg4y_78us-1">
            <mxGeometry y="151" width="343" height="24" as="geometry" />
          </mxCell>
        </object>
        <mxCell id="XSU5xxXujM5Dg4y_78us-6" value="" style="line;strokeWidth=1;fillColor=none;align=left;verticalAlign=middle;spacingTop=-1;spacingLeft=3;spacingRight=3;rotatable=0;labelPosition=right;points=[];portConstraint=eastwest;cloneable=1;rounded=0;part=1;fontFamily=Helvetica;fontSize=13;fontColor=default;" vertex="1" parent="XSU5xxXujM5Dg4y_78us-1">
          <mxGeometry y="175" width="343" height="8" as="geometry" />
        </mxCell>
        <object label="《%shapeType%》&#xa;%className%&#xa;%classDesc%" placeholders="1" shapeType="TABLE" className="TeamMember" classDesc="团队成员" id="XSU5xxXujM5Dg4y_78us-7">
          <mxCell style="swimlane;fontStyle=3;align=center;verticalAlign=top;childLayout=stackLayout;horizontal=1;startSize=55;horizontalStack=0;resizeParent=1;resizeParentMax=0;resizeLast=0;collapsible=1;marginBottom=0;fixDash=1;container=1;enumerate=0;treeMoving=1;swimlaneBody=1;fillOpacity=100;strokeOpacity=100;overflow=visible;rounded=1;swimlaneLine=1;sketch=0;shadow=0;arcSize=7;fillColor=#dae8fc;strokeColor=#6c8ebf;strokeWidth=1;fillStyle=auto;swimlaneFillColor=default;metaEdit=1;labelPadding=0;cloneable=1;separatorColor=none;swimlaneHead=1;noLabel=0;direction=east;portConstraint=none;portConstraintRotation=0;rotation=0;connectable=1;snapToPoint=0;perimeter=rectanglePerimeter;dropTarget=1;expand=1;part=1;backgroundOutline=1;movableLabel=1;autosize=1;fixedWidth=0;resizable=1;resizeWidth=0;resizeHeight=0;rotatable=1;treeFolding=0;pointerEvents=1;moveCells=0;comic=0;enumerateValue=123;allowArrows=0;glass=0;fontFamily=Helvetica;fontSize=13;" vertex="1" parent="1">
            <mxGeometry x="-765" y="475" width="343" height="159" as="geometry">
              <mxRectangle x="70" y="410" width="250" height="50" as="alternateBounds" />
            </mxGeometry>
          </mxCell>
        </object>
        <object label="%fieldModify% %fieldName%: %fieldType%    #%fieldDesc%" placeholders="1" shapeType="FIELD" fieldName="id" fieldType="Long" fieldModify="-" fieldDesc="主键" id="3DryI7w1mxvqSqRpwAh8-3">
          <mxCell style="text;strokeColor=none;fillColor=none;align=left;verticalAlign=top;spacingLeft=4;spacingRight=4;overflow=hidden;rotatable=0;points=[];portConstraint=none;metaEdit=1;cloneable=1;rotation=0;connectable=1;container=0;dropTarget=1;imageAspect=1;absoluteArcSize=0;portConstraintRotation=0;snapToPoint=0;fixDash=0;pointerEvents=0;enumerate=0;resizeHeight=1;resizeWidth=1;autosize=1;part=1;movable=1;rounded=0;fontFamily=Helvetica;fontSize=13;fontColor=default;comic=1;" vertex="1" parent="XSU5xxXujM5Dg4y_78us-7">
            <mxGeometry y="55" width="343" height="24" as="geometry" />
          </mxCell>
        </object>
        <object label="%fieldModify% %fieldName%: %fieldType%    #%fieldDesc%" placeholders="1" shapeType="FIELD" fieldName="TeamId" fieldType="Long" fieldModify="-" fieldDesc="团队ID" id="XSU5xxXujM5Dg4y_78us-8">
          <mxCell style="text;strokeColor=none;fillColor=none;align=left;verticalAlign=top;spacingLeft=4;spacingRight=4;overflow=hidden;rotatable=0;points=[];portConstraint=none;metaEdit=1;cloneable=1;rotation=0;connectable=1;container=0;dropTarget=1;imageAspect=1;absoluteArcSize=0;portConstraintRotation=0;snapToPoint=0;fixDash=0;pointerEvents=0;enumerate=0;resizeHeight=1;resizeWidth=1;autosize=1;part=1;movable=1;rounded=0;fontFamily=Helvetica;fontSize=13;fontColor=default;comic=1;" vertex="1" parent="XSU5xxXujM5Dg4y_78us-7">
            <mxGeometry y="79" width="343" height="24" as="geometry" />
          </mxCell>
        </object>
        <object label="%fieldModify% %fieldName%: %fieldType%    #%fieldDesc%" placeholders="1" shapeType="FIELD" fieldName="AccountId" fieldType="Long" fieldModify="-" fieldDesc="成员账号ID" id="XSU5xxXujM5Dg4y_78us-9">
          <mxCell style="text;strokeColor=none;fillColor=none;align=left;verticalAlign=top;spacingLeft=4;spacingRight=4;overflow=hidden;rotatable=0;points=[];portConstraint=none;metaEdit=1;cloneable=1;rotation=0;connectable=1;container=0;dropTarget=1;imageAspect=1;absoluteArcSize=0;portConstraintRotation=0;snapToPoint=0;fixDash=0;pointerEvents=0;enumerate=0;resizeHeight=1;resizeWidth=1;autosize=1;part=1;movable=1;rounded=0;fontFamily=Helvetica;fontSize=13;fontColor=default;comic=1;" vertex="1" parent="XSU5xxXujM5Dg4y_78us-7">
            <mxGeometry y="103" width="343" height="24" as="geometry" />
          </mxCell>
        </object>
        <object label="%fieldModify% %fieldName%: %fieldType%    #%fieldDesc%" placeholders="1" shapeType="FIELD" fieldName="memberType" fieldType="MemberType" fieldModify="-" fieldDesc="成员类型（1-产品经理，2-架构师， 3-开发者）" id="XSU5xxXujM5Dg4y_78us-10">
          <mxCell style="text;strokeColor=none;fillColor=none;align=left;verticalAlign=top;spacingLeft=4;spacingRight=4;overflow=hidden;rotatable=0;points=[];portConstraint=none;metaEdit=1;cloneable=1;rotation=0;connectable=1;container=0;dropTarget=1;imageAspect=1;absoluteArcSize=0;portConstraintRotation=0;snapToPoint=0;fixDash=0;pointerEvents=0;enumerate=0;resizeHeight=1;resizeWidth=1;autosize=1;part=1;movable=1;rounded=0;fontFamily=Helvetica;fontSize=13;fontColor=default;comic=1;" vertex="1" parent="XSU5xxXujM5Dg4y_78us-7">
            <mxGeometry y="127" width="343" height="24" as="geometry" />
          </mxCell>
        </object>
        <mxCell id="XSU5xxXujM5Dg4y_78us-11" value="" style="line;strokeWidth=1;fillColor=none;align=left;verticalAlign=middle;spacingTop=-1;spacingLeft=3;spacingRight=3;rotatable=0;labelPosition=right;points=[];portConstraint=eastwest;cloneable=1;rounded=0;part=1;fontFamily=Helvetica;fontSize=13;fontColor=default;" vertex="1" parent="XSU5xxXujM5Dg4y_78us-7">
          <mxGeometry y="151" width="343" height="8" as="geometry" />
        </mxCell>
        <mxCell id="3DryI7w1mxvqSqRpwAh8-4" value="" style="endArrow=classic;html=1;rounded=0;" edge="1" parent="1" source="XSU5xxXujM5Dg4y_78us-8" target="XSU5xxXujM5Dg4y_78us-1">
          <mxGeometry width="50" height="50" relative="1" as="geometry">
            <mxPoint x="-940" y="592" as="sourcePoint" />
            <mxPoint x="-890" y="542" as="targetPoint" />
          </mxGeometry>
        </mxCell>
        <mxCell id="3DryI7w1mxvqSqRpwAh8-5" value="&lt;font style=&quot;font-size: 20px;&quot;&gt;1:*&lt;/font&gt;" style="edgeLabel;html=1;align=center;verticalAlign=middle;resizable=0;points=[];" vertex="1" connectable="0" parent="3DryI7w1mxvqSqRpwAh8-4">
          <mxGeometry x="0.1675" y="-3" relative="1" as="geometry">
            <mxPoint x="19" y="-1" as="offset" />
          </mxGeometry>
        </mxCell>
        <mxCell id="3DryI7w1mxvqSqRpwAh8-7" value="" style="curved=1;endArrow=classic;html=1;rounded=0;fontSize=20;" edge="1" parent="1" source="XSU5xxXujM5Dg4y_78us-2" target="7s3UA_DmdeyBPJw6Gox0-1">
          <mxGeometry width="50" height="50" relative="1" as="geometry">
            <mxPoint x="-1452" y="506" as="sourcePoint" />
            <mxPoint x="-1406" y="355" as="targetPoint" />
            <Array as="points">
              <mxPoint x="-1396" y="560" />
              <mxPoint x="-1401" y="298" />
            </Array>
          </mxGeometry>
        </mxCell>
        <mxCell id="3DryI7w1mxvqSqRpwAh8-8" value="1:*" style="edgeLabel;html=1;align=center;verticalAlign=middle;resizable=0;points=[];fontSize=20;" vertex="1" connectable="0" parent="3DryI7w1mxvqSqRpwAh8-7">
          <mxGeometry x="-0.0169" relative="1" as="geometry">
            <mxPoint as="offset" />
          </mxGeometry>
        </mxCell>
      </root>
    </mxGraphModel>
  </diagram>
  <diagram id="QRtwxAmZlqCdIwgmdbo9" name="上下文关系映射">
    <mxGraphModel dx="1626" dy="854" grid="0" gridSize="10" guides="1" tooltips="1" connect="1" arrows="1" fold="1" page="0" pageScale="1" pageWidth="827" pageHeight="1169" math="0" shadow="0">
      <root>
        <mxCell id="0" />
        <mxCell id="1" parent="0" />
        <mxCell id="R-o6RVJRkPMlvFTCqomX-1" value="&lt;font style=&quot;font-size: 14px;&quot;&gt;用户域&lt;/font&gt;" style="ellipse;whiteSpace=wrap;html=1;fontSize=20;fillColor=#fff2cc;strokeColor=#d6b656;" vertex="1" parent="1">
          <mxGeometry x="288" y="243" width="120" height="80" as="geometry" />
        </mxCell>
        <mxCell id="R-o6RVJRkPMlvFTCqomX-3" style="edgeStyle=orthogonalEdgeStyle;rounded=0;orthogonalLoop=1;jettySize=auto;html=1;fontSize=14;" edge="1" parent="1" source="R-o6RVJRkPMlvFTCqomX-2" target="R-o6RVJRkPMlvFTCqomX-1">
          <mxGeometry relative="1" as="geometry" />
        </mxCell>
        <mxCell id="R-o6RVJRkPMlvFTCqomX-2" value="&lt;font style=&quot;font-size: 14px;&quot;&gt;组织域&lt;/font&gt;" style="ellipse;whiteSpace=wrap;html=1;fontSize=20;fillColor=#dae8fc;strokeColor=#6c8ebf;" vertex="1" parent="1">
          <mxGeometry x="288" y="403" width="120" height="80" as="geometry" />
        </mxCell>
      </root>
    </mxGraphModel>
  </diagram>
</mxfile>
